<svg width="883" height="775" viewBox="0 0 883 775" fill="none" xmlns="http://www.w3.org/2000/svg">
<path d="M442 762.25C649.245 762.25 817.25 594.245 817.25 387C817.25 179.755 649.245 11.75 442 11.75C234.755 11.75 66.75 179.755 66.75 387C66.75 594.245 234.755 762.25 442 762.25Z" stroke="#0D0253" stroke-width="1.5"/>
<path d="M763 580L569.5 741.5M311 741.5L119 580L311 741.5ZM311 741.5L66 387L311 741.5ZM311 741.5L119 194.5L311 741.5ZM311 741.5V37V741.5ZM311 741.5L569.5 37L311 741.5ZM311 741.5L763 194.5L311 741.5ZM311 741.5L819.5 387L311 741.5ZM311 741.5L763 580L311 741.5ZM311 741.5H569.5H311ZM119 580L569.5 741.5L119 580ZM119 580H763H119ZM119 580L819.5 387L119 580ZM119 580L763 194.5L119 580ZM119 580L569.5 37L119 580ZM119 580L311 37L119 580ZM119 580V194.5V580ZM119 580L66 387L119 580ZM66 387L569.5 741.5L66 387ZM66 387L763 580L66 387ZM66 387H819.5H66ZM66 387L763 194.5L66 387ZM66 387L569.5 37L66 387ZM66 387L311 37L66 387ZM66 387L119 194.5L66 387ZM119 194.5L569.5 741.5L119 194.5ZM119 194.5L763 580L119 194.5ZM119 194.5L819.5 387L119 194.5ZM119 194.5H763H119ZM119 194.5L569.5 37L119 194.5ZM119 194.5L311 37L119 194.5ZM311 37L569.5 741.5L311 37ZM311 37L763 580L311 37ZM311 37L819.5 387L311 37ZM311 37L763 194.5L311 37ZM311 37H569.5H311ZM569.5 37V741.5V37ZM569.5 37L763 580L569.5 37ZM569.5 37L819.5 387L569.5 37ZM569.5 37L763 194.5L569.5 37ZM763 194.5L569.5 741.5L763 194.5ZM763 194.5V580V194.5ZM763 194.5L819.5 387L763 194.5ZM819.5 387L569.5 741.5L819.5 387ZM819.5 387L763 580L819.5 387Z" stroke="#0D0253" stroke-width="1.5"/>
<path d="M341 707H279C260.222 707 245 722.222 245 741C245 759.778 260.222 775 279 775H341C359.778 775 375 759.778 375 741C375 722.222 359.778 707 341 707Z" fill="#FAF9F8"/>
<path d="M600 707H538C519.222 707 504 722.222 504 741C504 759.778 519.222 775 538 775H600C618.778 775 634 759.778 634 741C634 722.222 618.778 707 600 707Z" fill="#FAF9F8"/>
<path d="M154 546H92C73.2223 546 58 561.222 58 580C58 598.778 73.2223 614 92 614H154C172.778 614 188 598.778 188 580C188 561.222 172.778 546 154 546Z" fill="#FAF9F8"/>
<path d="M96 353H34C15.2223 353 0 368.222 0 387C0 405.778 15.2223 421 34 421H96C114.778 421 130 405.778 130 387C130 368.222 114.778 353 96 353Z" fill="#FAF9F8"/>
<path d="M150 158H88C69.2223 158 54 173.222 54 192C54 210.778 69.2223 226 88 226H150C168.778 226 184 210.778 184 192C184 173.222 168.778 158 150 158Z" fill="#FAF9F8"/>
<path d="M600 0H538C519.222 0 504 15.2223 504 34C504 52.7777 519.222 68 538 68H600C618.778 68 634 52.7777 634 34C634 15.2223 618.778 0 600 0Z" fill="#FAF9F8"/>
<path d="M341 0H279C260.222 0 245 15.2223 245 34C245 52.7777 260.222 68 279 68H341C359.778 68 375 52.7777 375 34C375 15.2223 359.778 0 341 0Z" fill="#FAF9F8"/>
<path d="M794 158H732C713.222 158 698 173.222 698 192C698 210.778 713.222 226 732 226H794C812.778 226 828 210.778 828 192C828 173.222 812.778 158 794 158Z" fill="#FAF9F8"/>
<path d="M794 546H732C713.222 546 698 561.222 698 580C698 598.778 713.222 614 732 614H794C812.778 614 828 598.778 828 580C828 561.222 812.778 546 794 546Z" fill="#FAF9F8"/>
<path d="M849 353H787C768.222 353 753 368.222 753 387C753 405.778 768.222 421 787 421H849C867.778 421 883 405.778 883 387C883 368.222 867.778 353 849 353Z" fill="#FAF9F8"/>
<path d="M257 33.5C257 21.074 267.074 11 279.5 11H340.5C352.926 11 363 21.074 363 33.5C363 45.926 352.926 56 340.5 56H279.5C267.074 56 257 45.926 257 33.5Z" fill="#0D0253"/>
<path d="M516 33.5C516 21.074 526.074 11 538.5 11H599.5C611.926 11 622 21.074 622 33.5C622 45.926 611.926 56 599.5 56H538.5C526.074 56 516 45.926 516 33.5Z" fill="#0D0253"/>
<path d="M69.5 191.5C69.5 179.074 79.574 169 92 169H153C165.426 169 175.5 179.074 175.5 191.5C175.5 203.926 165.426 214 153 214H92C79.574 214 69.5 203.926 69.5 191.5Z" fill="#0D0253"/>
<path d="M710 191.5C710 179.074 720.07 169 732.5 169H793.5C805.93 169 816 179.074 816 191.5C816 203.926 805.93 214 793.5 214H732.5C720.07 214 710 203.926 710 191.5Z" fill="#0D0253"/>
<path d="M764.5 386.5C764.5 374.074 774.57 364 787 364H848C860.43 364 870.5 374.074 870.5 386.5C870.5 398.926 860.43 409 848 409H787C774.57 409 764.5 398.926 764.5 386.5Z" fill="#0D0253"/>
<path d="M710 582.5C710 570.074 720.07 560 732.5 560H793.5C805.93 560 816 570.074 816 582.5C816 594.926 805.93 605 793.5 605H732.5C720.07 605 710 594.926 710 582.5Z" fill="#0D0253"/>
<path d="M69.5 582.5C69.5 570.074 79.574 560 92 560H153C165.426 560 175.5 570.074 175.5 582.5C175.5 594.926 165.426 605 153 605H92C79.574 605 69.5 594.926 69.5 582.5Z" fill="#0D0253"/>
<path d="M12.5 386.5C12.5 374.074 22.574 364 35 364H96C108.426 364 118.5 374.074 118.5 386.5C118.5 398.926 108.426 409 96 409H35C22.574 409 12.5 398.926 12.5 386.5Z" fill="#0D0253"/>
<path d="M257 741.5C257 729.074 267.074 719 279.5 719H340.5C352.926 719 363 729.074 363 741.5C363 753.926 352.926 764 340.5 764H279.5C267.074 764 257 753.926 257 741.5Z" fill="#0D0253"/>
<path d="M516 741.5C516 729.074 526.074 719 538.5 719H599.5C611.926 719 622 729.074 622 741.5C622 753.926 611.926 764 599.5 764H538.5C526.074 764 516 753.926 516 741.5Z" fill="#0D0253"/>
<path d="M742.777 187C744.057 187 745.037 187.44 745.717 188.32C746.417 189.18 746.767 190.41 746.767 192.01V202H744.217V192.37C744.217 190.37 743.567 189.37 742.267 189.37C741.687 189.37 741.097 189.59 740.497 190.03C739.897 190.47 739.377 191.07 738.937 191.83V202H736.387V187.36H738.787V189.55C739.327 188.73 739.927 188.1 740.587 187.66C741.267 187.22 741.997 187 742.777 187ZM755.957 187C757.737 187 759.057 187.48 759.917 188.44C760.797 189.38 761.237 190.72 761.237 192.46V196.9C761.237 198.64 760.797 199.99 759.917 200.95C759.057 201.89 757.737 202.36 755.957 202.36C754.177 202.36 752.847 201.89 751.967 200.95C751.107 199.99 750.677 198.64 750.677 196.9V192.46C750.677 190.72 751.107 189.38 751.967 188.44C752.847 187.48 754.177 187 755.957 187ZM755.957 189.13C755.097 189.13 754.427 189.4 753.947 189.94C753.467 190.48 753.227 191.25 753.227 192.25V197.11C753.227 198.11 753.467 198.88 753.947 199.42C754.427 199.96 755.097 200.23 755.957 200.23C756.817 200.23 757.487 199.96 757.967 199.42C758.447 198.88 758.687 198.11 758.687 197.11V192.22C758.687 191.22 758.447 190.46 757.967 189.94C757.487 189.4 756.817 189.13 755.957 189.13ZM775.207 202H772.777V199.63C771.577 201.45 770.207 202.36 768.667 202.36C767.427 202.36 766.477 201.94 765.817 201.1C765.157 200.24 764.827 198.99 764.827 197.35V192.01C764.827 190.43 765.187 189.2 765.907 188.32C766.647 187.44 767.697 187 769.057 187C769.637 187 770.247 187.15 770.887 187.45C771.527 187.73 772.117 188.08 772.657 188.5V181.51H775.207V202ZM769.627 189.28C768.907 189.28 768.347 189.54 767.947 190.06C767.567 190.56 767.377 191.33 767.377 192.37V197.02C767.377 199.06 768.007 200.08 769.267 200.08C769.867 200.08 770.457 199.85 771.037 199.39C771.637 198.91 772.177 198.24 772.657 197.38V190.78C772.237 190.34 771.737 189.98 771.157 189.7C770.597 189.42 770.087 189.28 769.627 189.28ZM784.195 187C785.875 187 787.155 187.46 788.035 188.38C788.915 189.3 789.355 190.63 789.355 192.37V195.46H781.645V197.23C781.645 198.25 781.885 198.99 782.365 199.45C782.865 199.89 783.645 200.11 784.705 200.11C785.745 200.11 787.045 199.95 788.605 199.63L788.665 201.85C786.805 202.19 785.475 202.36 784.675 202.36C782.695 202.36 781.265 201.93 780.385 201.07C779.525 200.21 779.095 198.88 779.095 197.08V192.37C779.095 190.63 779.515 189.3 780.355 188.38C781.215 187.46 782.495 187 784.195 187ZM784.195 189.13C783.415 189.13 782.795 189.38 782.335 189.88C781.875 190.36 781.645 191.06 781.645 191.98V193.42H786.805V192.07C786.805 191.11 786.565 190.38 786.085 189.88C785.625 189.38 784.995 189.13 784.195 189.13Z" fill="white"/>
<path d="M795.777 382C797.057 382 798.037 382.44 798.717 383.32C799.417 384.18 799.767 385.41 799.767 387.01V397H797.217V387.37C797.217 385.37 796.567 384.37 795.267 384.37C794.687 384.37 794.097 384.59 793.497 385.03C792.897 385.47 792.377 386.07 791.937 386.83V397H789.387V382.36H791.787V384.55C792.327 383.73 792.927 383.1 793.587 382.66C794.267 382.22 794.997 382 795.777 382ZM808.957 382C810.737 382 812.057 382.48 812.917 383.44C813.797 384.38 814.237 385.72 814.237 387.46V391.9C814.237 393.64 813.797 394.99 812.917 395.95C812.057 396.89 810.737 397.36 808.957 397.36C807.177 397.36 805.847 396.89 804.967 395.95C804.107 394.99 803.677 393.64 803.677 391.9V387.46C803.677 385.72 804.107 384.38 804.967 383.44C805.847 382.48 807.177 382 808.957 382ZM808.957 384.13C808.097 384.13 807.427 384.4 806.947 384.94C806.467 385.48 806.227 386.25 806.227 387.25V392.11C806.227 393.11 806.467 393.88 806.947 394.42C807.427 394.96 808.097 395.23 808.957 395.23C809.817 395.23 810.487 394.96 810.967 394.42C811.447 393.88 811.687 393.11 811.687 392.11V387.22C811.687 386.22 811.447 385.46 810.967 384.94C810.487 384.4 809.817 384.13 808.957 384.13ZM828.207 397H825.777V394.63C824.577 396.45 823.207 397.36 821.667 397.36C820.427 397.36 819.477 396.94 818.817 396.1C818.157 395.24 817.827 393.99 817.827 392.35V387.01C817.827 385.43 818.187 384.2 818.907 383.32C819.647 382.44 820.697 382 822.057 382C822.637 382 823.247 382.15 823.887 382.45C824.527 382.73 825.117 383.08 825.657 383.5V376.51H828.207V397ZM822.627 384.28C821.907 384.28 821.347 384.54 820.947 385.06C820.567 385.56 820.377 386.33 820.377 387.37V392.02C820.377 394.06 821.007 395.08 822.267 395.08C822.867 395.08 823.457 394.85 824.037 394.39C824.637 393.91 825.177 393.24 825.657 392.38V385.78C825.237 385.34 824.737 384.98 824.157 384.7C823.597 384.42 823.087 384.28 822.627 384.28ZM837.195 382C838.875 382 840.155 382.46 841.035 383.38C841.915 384.3 842.355 385.63 842.355 387.37V390.46H834.645V392.23C834.645 393.25 834.885 393.99 835.365 394.45C835.865 394.89 836.645 395.11 837.705 395.11C838.745 395.11 840.045 394.95 841.605 394.63L841.665 396.85C839.805 397.19 838.475 397.36 837.675 397.36C835.695 397.36 834.265 396.93 833.385 396.07C832.525 395.21 832.095 393.88 832.095 392.08V387.37C832.095 385.63 832.515 384.3 833.355 383.38C834.215 382.46 835.495 382 837.195 382ZM837.195 384.13C836.415 384.13 835.795 384.38 835.335 384.88C834.875 385.36 834.645 386.06 834.645 386.98V388.42H839.805V387.07C839.805 386.11 839.565 385.38 839.085 384.88C838.625 384.38 837.995 384.13 837.195 384.13Z" fill="white"/>
<path d="M548.777 736C550.057 736 551.037 736.44 551.717 737.32C552.417 738.18 552.767 739.41 552.767 741.01V751H550.217V741.37C550.217 739.37 549.567 738.37 548.267 738.37C547.687 738.37 547.097 738.59 546.497 739.03C545.897 739.47 545.377 740.07 544.937 740.83V751H542.387V736.36H544.787V738.55C545.327 737.73 545.927 737.1 546.587 736.66C547.267 736.22 547.997 736 548.777 736ZM561.957 736C563.737 736 565.057 736.48 565.917 737.44C566.797 738.38 567.237 739.72 567.237 741.46V745.9C567.237 747.64 566.797 748.99 565.917 749.95C565.057 750.89 563.737 751.36 561.957 751.36C560.177 751.36 558.847 750.89 557.967 749.95C557.107 748.99 556.677 747.64 556.677 745.9V741.46C556.677 739.72 557.107 738.38 557.967 737.44C558.847 736.48 560.177 736 561.957 736ZM561.957 738.13C561.097 738.13 560.427 738.4 559.947 738.94C559.467 739.48 559.227 740.25 559.227 741.25V746.11C559.227 747.11 559.467 747.88 559.947 748.42C560.427 748.96 561.097 749.23 561.957 749.23C562.817 749.23 563.487 748.96 563.967 748.42C564.447 747.88 564.687 747.11 564.687 746.11V741.22C564.687 740.22 564.447 739.46 563.967 738.94C563.487 738.4 562.817 738.13 561.957 738.13ZM581.207 751H578.777V748.63C577.577 750.45 576.207 751.36 574.667 751.36C573.427 751.36 572.477 750.94 571.817 750.1C571.157 749.24 570.827 747.99 570.827 746.35V741.01C570.827 739.43 571.187 738.2 571.907 737.32C572.647 736.44 573.697 736 575.057 736C575.637 736 576.247 736.15 576.887 736.45C577.527 736.73 578.117 737.08 578.657 737.5V730.51H581.207V751ZM575.627 738.28C574.907 738.28 574.347 738.54 573.947 739.06C573.567 739.56 573.377 740.33 573.377 741.37V746.02C573.377 748.06 574.007 749.08 575.267 749.08C575.867 749.08 576.457 748.85 577.037 748.39C577.637 747.91 578.177 747.24 578.657 746.38V739.78C578.237 739.34 577.737 738.98 577.157 738.7C576.597 738.42 576.087 738.28 575.627 738.28ZM590.195 736C591.875 736 593.155 736.46 594.035 737.38C594.915 738.3 595.355 739.63 595.355 741.37V744.46H587.645V746.23C587.645 747.25 587.885 747.99 588.365 748.45C588.865 748.89 589.645 749.11 590.705 749.11C591.745 749.11 593.045 748.95 594.605 748.63L594.665 750.85C592.805 751.19 591.475 751.36 590.675 751.36C588.695 751.36 587.265 750.93 586.385 750.07C585.525 749.21 585.095 747.88 585.095 746.08V741.37C585.095 739.63 585.515 738.3 586.355 737.38C587.215 736.46 588.495 736 590.195 736ZM590.195 738.13C589.415 738.13 588.795 738.38 588.335 738.88C587.875 739.36 587.645 740.06 587.645 740.98V742.42H592.805V741.07C592.805 740.11 592.565 739.38 592.085 738.88C591.625 738.38 590.995 738.13 590.195 738.13Z" fill="white"/>
<path d="M289.777 736C291.057 736 292.037 736.44 292.717 737.32C293.417 738.18 293.767 739.41 293.767 741.01V751H291.217V741.37C291.217 739.37 290.567 738.37 289.267 738.37C288.687 738.37 288.097 738.59 287.497 739.03C286.897 739.47 286.377 740.07 285.937 740.83V751H283.387V736.36H285.787V738.55C286.327 737.73 286.927 737.1 287.587 736.66C288.267 736.22 288.997 736 289.777 736ZM302.957 736C304.737 736 306.057 736.48 306.917 737.44C307.797 738.38 308.237 739.72 308.237 741.46V745.9C308.237 747.64 307.797 748.99 306.917 749.95C306.057 750.89 304.737 751.36 302.957 751.36C301.177 751.36 299.847 750.89 298.967 749.95C298.107 748.99 297.677 747.64 297.677 745.9V741.46C297.677 739.72 298.107 738.38 298.967 737.44C299.847 736.48 301.177 736 302.957 736ZM302.957 738.13C302.097 738.13 301.427 738.4 300.947 738.94C300.467 739.48 300.227 740.25 300.227 741.25V746.11C300.227 747.11 300.467 747.88 300.947 748.42C301.427 748.96 302.097 749.23 302.957 749.23C303.817 749.23 304.487 748.96 304.967 748.42C305.447 747.88 305.687 747.11 305.687 746.11V741.22C305.687 740.22 305.447 739.46 304.967 738.94C304.487 738.4 303.817 738.13 302.957 738.13ZM322.207 751H319.777V748.63C318.577 750.45 317.207 751.36 315.667 751.36C314.427 751.36 313.477 750.94 312.817 750.1C312.157 749.24 311.827 747.99 311.827 746.35V741.01C311.827 739.43 312.187 738.2 312.907 737.32C313.647 736.44 314.697 736 316.057 736C316.637 736 317.247 736.15 317.887 736.45C318.527 736.73 319.117 737.08 319.657 737.5V730.51H322.207V751ZM316.627 738.28C315.907 738.28 315.347 738.54 314.947 739.06C314.567 739.56 314.377 740.33 314.377 741.37V746.02C314.377 748.06 315.007 749.08 316.267 749.08C316.867 749.08 317.457 748.85 318.037 748.39C318.637 747.91 319.177 747.24 319.657 746.38V739.78C319.237 739.34 318.737 738.98 318.157 738.7C317.597 738.42 317.087 738.28 316.627 738.28ZM331.195 736C332.875 736 334.155 736.46 335.035 737.38C335.915 738.3 336.355 739.63 336.355 741.37V744.46H328.645V746.23C328.645 747.25 328.885 747.99 329.365 748.45C329.865 748.89 330.645 749.11 331.705 749.11C332.745 749.11 334.045 748.95 335.605 748.63L335.665 750.85C333.805 751.19 332.475 751.36 331.675 751.36C329.695 751.36 328.265 750.93 327.385 750.07C326.525 749.21 326.095 747.88 326.095 746.08V741.37C326.095 739.63 326.515 738.3 327.355 737.38C328.215 736.46 329.495 736 331.195 736ZM331.195 738.13C330.415 738.13 329.795 738.38 329.335 738.88C328.875 739.36 328.645 740.06 328.645 740.98V742.42H333.805V741.07C333.805 740.11 333.565 739.38 333.085 738.88C332.625 738.38 331.995 738.13 331.195 738.13Z" fill="white"/>
<path d="M548.777 29C550.057 29 551.037 29.44 551.717 30.32C552.417 31.18 552.767 32.41 552.767 34.01V44H550.217V34.37C550.217 32.37 549.567 31.37 548.267 31.37C547.687 31.37 547.097 31.59 546.497 32.03C545.897 32.47 545.377 33.07 544.937 33.83V44H542.387V29.36H544.787V31.55C545.327 30.73 545.927 30.1 546.587 29.66C547.267 29.22 547.997 29 548.777 29ZM561.957 29C563.737 29 565.057 29.48 565.917 30.44C566.797 31.38 567.237 32.72 567.237 34.46V38.9C567.237 40.64 566.797 41.99 565.917 42.95C565.057 43.89 563.737 44.36 561.957 44.36C560.177 44.36 558.847 43.89 557.967 42.95C557.107 41.99 556.677 40.64 556.677 38.9V34.46C556.677 32.72 557.107 31.38 557.967 30.44C558.847 29.48 560.177 29 561.957 29ZM561.957 31.13C561.097 31.13 560.427 31.4 559.947 31.94C559.467 32.48 559.227 33.25 559.227 34.25V39.11C559.227 40.11 559.467 40.88 559.947 41.42C560.427 41.96 561.097 42.23 561.957 42.23C562.817 42.23 563.487 41.96 563.967 41.42C564.447 40.88 564.687 40.11 564.687 39.11V34.22C564.687 33.22 564.447 32.46 563.967 31.94C563.487 31.4 562.817 31.13 561.957 31.13ZM581.207 44H578.777V41.63C577.577 43.45 576.207 44.36 574.667 44.36C573.427 44.36 572.477 43.94 571.817 43.1C571.157 42.24 570.827 40.99 570.827 39.35V34.01C570.827 32.43 571.187 31.2 571.907 30.32C572.647 29.44 573.697 29 575.057 29C575.637 29 576.247 29.15 576.887 29.45C577.527 29.73 578.117 30.08 578.657 30.5V23.51H581.207V44ZM575.627 31.28C574.907 31.28 574.347 31.54 573.947 32.06C573.567 32.56 573.377 33.33 573.377 34.37V39.02C573.377 41.06 574.007 42.08 575.267 42.08C575.867 42.08 576.457 41.85 577.037 41.39C577.637 40.91 578.177 40.24 578.657 39.38V32.78C578.237 32.34 577.737 31.98 577.157 31.7C576.597 31.42 576.087 31.28 575.627 31.28ZM590.195 29C591.875 29 593.155 29.46 594.035 30.38C594.915 31.3 595.355 32.63 595.355 34.37V37.46H587.645V39.23C587.645 40.25 587.885 40.99 588.365 41.45C588.865 41.89 589.645 42.11 590.705 42.11C591.745 42.11 593.045 41.95 594.605 41.63L594.665 43.85C592.805 44.19 591.475 44.36 590.675 44.36C588.695 44.36 587.265 43.93 586.385 43.07C585.525 42.21 585.095 40.88 585.095 39.08V34.37C585.095 32.63 585.515 31.3 586.355 30.38C587.215 29.46 588.495 29 590.195 29ZM590.195 31.13C589.415 31.13 588.795 31.38 588.335 31.88C587.875 32.36 587.645 33.06 587.645 33.98V35.42H592.805V34.07C592.805 33.11 592.565 32.38 592.085 31.88C591.625 31.38 590.995 31.13 590.195 31.13Z" fill="white"/>
<path d="M289.777 29C291.057 29 292.037 29.44 292.717 30.32C293.417 31.18 293.767 32.41 293.767 34.01V44H291.217V34.37C291.217 32.37 290.567 31.37 289.267 31.37C288.687 31.37 288.097 31.59 287.497 32.03C286.897 32.47 286.377 33.07 285.937 33.83V44H283.387V29.36H285.787V31.55C286.327 30.73 286.927 30.1 287.587 29.66C288.267 29.22 288.997 29 289.777 29ZM302.957 29C304.737 29 306.057 29.48 306.917 30.44C307.797 31.38 308.237 32.72 308.237 34.46V38.9C308.237 40.64 307.797 41.99 306.917 42.95C306.057 43.89 304.737 44.36 302.957 44.36C301.177 44.36 299.847 43.89 298.967 42.95C298.107 41.99 297.677 40.64 297.677 38.9V34.46C297.677 32.72 298.107 31.38 298.967 30.44C299.847 29.48 301.177 29 302.957 29ZM302.957 31.13C302.097 31.13 301.427 31.4 300.947 31.94C300.467 32.48 300.227 33.25 300.227 34.25V39.11C300.227 40.11 300.467 40.88 300.947 41.42C301.427 41.96 302.097 42.23 302.957 42.23C303.817 42.23 304.487 41.96 304.967 41.42C305.447 40.88 305.687 40.11 305.687 39.11V34.22C305.687 33.22 305.447 32.46 304.967 31.94C304.487 31.4 303.817 31.13 302.957 31.13ZM322.207 44H319.777V41.63C318.577 43.45 317.207 44.36 315.667 44.36C314.427 44.36 313.477 43.94 312.817 43.1C312.157 42.24 311.827 40.99 311.827 39.35V34.01C311.827 32.43 312.187 31.2 312.907 30.32C313.647 29.44 314.697 29 316.057 29C316.637 29 317.247 29.15 317.887 29.45C318.527 29.73 319.117 30.08 319.657 30.5V23.51H322.207V44ZM316.627 31.28C315.907 31.28 315.347 31.54 314.947 32.06C314.567 32.56 314.377 33.33 314.377 34.37V39.02C314.377 41.06 315.007 42.08 316.267 42.08C316.867 42.08 317.457 41.85 318.037 41.39C318.637 40.91 319.177 40.24 319.657 39.38V32.78C319.237 32.34 318.737 31.98 318.157 31.7C317.597 31.42 317.087 31.28 316.627 31.28ZM331.195 29C332.875 29 334.155 29.46 335.035 30.38C335.915 31.3 336.355 32.63 336.355 34.37V37.46H328.645V39.23C328.645 40.25 328.885 40.99 329.365 41.45C329.865 41.89 330.645 42.11 331.705 42.11C332.745 42.11 334.045 41.95 335.605 41.63L335.665 43.85C333.805 44.19 332.475 44.36 331.675 44.36C329.695 44.36 328.265 43.93 327.385 43.07C326.525 42.21 326.095 40.88 326.095 39.08V34.37C326.095 32.63 326.515 31.3 327.355 30.38C328.215 29.46 329.495 29 331.195 29ZM331.195 31.13C330.415 31.13 329.795 31.38 329.335 31.88C328.875 32.36 328.645 33.06 328.645 33.98V35.42H333.805V34.07C333.805 33.11 333.565 32.38 333.085 31.88C332.625 31.38 331.995 31.13 331.195 31.13Z" fill="white"/>
<path d="M102.777 575C104.057 575 105.037 575.44 105.717 576.32C106.417 577.18 106.767 578.41 106.767 580.01V590H104.217V580.37C104.217 578.37 103.567 577.37 102.267 577.37C101.687 577.37 101.097 577.59 100.497 578.03C99.8971 578.47 99.3771 579.07 98.9371 579.83V590H96.3871V575.36H98.7871V577.55C99.3271 576.73 99.9271 576.1 100.587 575.66C101.267 575.22 101.997 575 102.777 575ZM115.957 575C117.737 575 119.057 575.48 119.917 576.44C120.797 577.38 121.237 578.72 121.237 580.46V584.9C121.237 586.64 120.797 587.99 119.917 588.95C119.057 589.89 117.737 590.36 115.957 590.36C114.177 590.36 112.847 589.89 111.967 588.95C111.107 587.99 110.677 586.64 110.677 584.9V580.46C110.677 578.72 111.107 577.38 111.967 576.44C112.847 575.48 114.177 575 115.957 575ZM115.957 577.13C115.097 577.13 114.427 577.4 113.947 577.94C113.467 578.48 113.227 579.25 113.227 580.25V585.11C113.227 586.11 113.467 586.88 113.947 587.42C114.427 587.96 115.097 588.23 115.957 588.23C116.817 588.23 117.487 587.96 117.967 587.42C118.447 586.88 118.687 586.11 118.687 585.11V580.22C118.687 579.22 118.447 578.46 117.967 577.94C117.487 577.4 116.817 577.13 115.957 577.13ZM135.207 590H132.777V587.63C131.577 589.45 130.207 590.36 128.667 590.36C127.427 590.36 126.477 589.94 125.817 589.1C125.157 588.24 124.827 586.99 124.827 585.35V580.01C124.827 578.43 125.187 577.2 125.907 576.32C126.647 575.44 127.697 575 129.057 575C129.637 575 130.247 575.15 130.887 575.45C131.527 575.73 132.117 576.08 132.657 576.5V569.51H135.207V590ZM129.627 577.28C128.907 577.28 128.347 577.54 127.947 578.06C127.567 578.56 127.377 579.33 127.377 580.37V585.02C127.377 587.06 128.007 588.08 129.267 588.08C129.867 588.08 130.457 587.85 131.037 587.39C131.637 586.91 132.177 586.24 132.657 585.38V578.78C132.237 578.34 131.737 577.98 131.157 577.7C130.597 577.42 130.087 577.28 129.627 577.28ZM144.195 575C145.875 575 147.155 575.46 148.035 576.38C148.915 577.3 149.355 578.63 149.355 580.37V583.46H141.645V585.23C141.645 586.25 141.885 586.99 142.365 587.45C142.865 587.89 143.645 588.11 144.705 588.11C145.745 588.11 147.045 587.95 148.605 587.63L148.665 589.85C146.805 590.19 145.475 590.36 144.675 590.36C142.695 590.36 141.265 589.93 140.385 589.07C139.525 588.21 139.095 586.88 139.095 585.08V580.37C139.095 578.63 139.515 577.3 140.355 576.38C141.215 575.46 142.495 575 144.195 575ZM144.195 577.13C143.415 577.13 142.795 577.38 142.335 577.88C141.875 578.36 141.645 579.06 141.645 579.98V581.42H146.805V580.07C146.805 579.11 146.565 578.38 146.085 577.88C145.625 577.38 144.995 577.13 144.195 577.13Z" fill="white"/>
<path d="M44.7771 381C46.0571 381 47.0371 381.44 47.7171 382.32C48.4171 383.18 48.7671 384.41 48.7671 386.01V396H46.2171V386.37C46.2171 384.37 45.5671 383.37 44.2671 383.37C43.6871 383.37 43.0971 383.59 42.4971 384.03C41.8971 384.47 41.3771 385.07 40.9371 385.83V396H38.3871V381.36H40.7871V383.55C41.3271 382.73 41.9271 382.1 42.5871 381.66C43.2671 381.22 43.9971 381 44.7771 381ZM57.957 381C59.737 381 61.057 381.48 61.917 382.44C62.797 383.38 63.237 384.72 63.237 386.46V390.9C63.237 392.64 62.797 393.99 61.917 394.95C61.057 395.89 59.737 396.36 57.957 396.36C56.177 396.36 54.847 395.89 53.967 394.95C53.107 393.99 52.677 392.64 52.677 390.9V386.46C52.677 384.72 53.107 383.38 53.967 382.44C54.847 381.48 56.177 381 57.957 381ZM57.957 383.13C57.097 383.13 56.427 383.4 55.947 383.94C55.467 384.48 55.227 385.25 55.227 386.25V391.11C55.227 392.11 55.467 392.88 55.947 393.42C56.427 393.96 57.097 394.23 57.957 394.23C58.817 394.23 59.487 393.96 59.967 393.42C60.447 392.88 60.687 392.11 60.687 391.11V386.22C60.687 385.22 60.447 384.46 59.967 383.94C59.487 383.4 58.817 383.13 57.957 383.13ZM77.2073 396H74.7773V393.63C73.5773 395.45 72.2073 396.36 70.6673 396.36C69.4273 396.36 68.4773 395.94 67.8173 395.1C67.1573 394.24 66.8273 392.99 66.8273 391.35V386.01C66.8273 384.43 67.1873 383.2 67.9073 382.32C68.6473 381.44 69.6973 381 71.0573 381C71.6373 381 72.2473 381.15 72.8873 381.45C73.5273 381.73 74.1173 382.08 74.6573 382.5V375.51H77.2073V396ZM71.6273 383.28C70.9073 383.28 70.3473 383.54 69.9473 384.06C69.5673 384.56 69.3773 385.33 69.3773 386.37V391.02C69.3773 393.06 70.0073 394.08 71.2673 394.08C71.8673 394.08 72.4573 393.85 73.0373 393.39C73.6373 392.91 74.1773 392.24 74.6573 391.38V384.78C74.2373 384.34 73.7373 383.98 73.1573 383.7C72.5973 383.42 72.0873 383.28 71.6273 383.28ZM86.1949 381C87.8749 381 89.1549 381.46 90.0349 382.38C90.9149 383.3 91.3549 384.63 91.3549 386.37V389.46H83.6449V391.23C83.6449 392.25 83.8849 392.99 84.3649 393.45C84.8649 393.89 85.6449 394.11 86.7049 394.11C87.7449 394.11 89.0449 393.95 90.6049 393.63L90.6649 395.85C88.8049 396.19 87.4749 396.36 86.6749 396.36C84.6949 396.36 83.2649 395.93 82.3849 395.07C81.5249 394.21 81.0949 392.88 81.0949 391.08V386.37C81.0949 384.63 81.5149 383.3 82.3549 382.38C83.2149 381.46 84.4949 381 86.1949 381ZM86.1949 383.13C85.4149 383.13 84.7949 383.38 84.3349 383.88C83.8749 384.36 83.6449 385.06 83.6449 385.98V387.42H88.8049V386.07C88.8049 385.11 88.5649 384.38 88.0849 383.88C87.6249 383.38 86.9949 383.13 86.1949 383.13Z" fill="white"/>
<path d="M102.777 187C104.057 187 105.037 187.44 105.717 188.32C106.417 189.18 106.767 190.41 106.767 192.01V202H104.217V192.37C104.217 190.37 103.567 189.37 102.267 189.37C101.687 189.37 101.097 189.59 100.497 190.03C99.8971 190.47 99.3771 191.07 98.9371 191.83V202H96.3871V187.36H98.7871V189.55C99.3271 188.73 99.9271 188.1 100.587 187.66C101.267 187.22 101.997 187 102.777 187ZM115.957 187C117.737 187 119.057 187.48 119.917 188.44C120.797 189.38 121.237 190.72 121.237 192.46V196.9C121.237 198.64 120.797 199.99 119.917 200.95C119.057 201.89 117.737 202.36 115.957 202.36C114.177 202.36 112.847 201.89 111.967 200.95C111.107 199.99 110.677 198.64 110.677 196.9V192.46C110.677 190.72 111.107 189.38 111.967 188.44C112.847 187.48 114.177 187 115.957 187ZM115.957 189.13C115.097 189.13 114.427 189.4 113.947 189.94C113.467 190.48 113.227 191.25 113.227 192.25V197.11C113.227 198.11 113.467 198.88 113.947 199.42C114.427 199.96 115.097 200.23 115.957 200.23C116.817 200.23 117.487 199.96 117.967 199.42C118.447 198.88 118.687 198.11 118.687 197.11V192.22C118.687 191.22 118.447 190.46 117.967 189.94C117.487 189.4 116.817 189.13 115.957 189.13ZM135.207 202H132.777V199.63C131.577 201.45 130.207 202.36 128.667 202.36C127.427 202.36 126.477 201.94 125.817 201.1C125.157 200.24 124.827 198.99 124.827 197.35V192.01C124.827 190.43 125.187 189.2 125.907 188.32C126.647 187.44 127.697 187 129.057 187C129.637 187 130.247 187.15 130.887 187.45C131.527 187.73 132.117 188.08 132.657 188.5V181.51H135.207V202ZM129.627 189.28C128.907 189.28 128.347 189.54 127.947 190.06C127.567 190.56 127.377 191.33 127.377 192.37V197.02C127.377 199.06 128.007 200.08 129.267 200.08C129.867 200.08 130.457 199.85 131.037 199.39C131.637 198.91 132.177 198.24 132.657 197.38V190.78C132.237 190.34 131.737 189.98 131.157 189.7C130.597 189.42 130.087 189.28 129.627 189.28ZM144.195 187C145.875 187 147.155 187.46 148.035 188.38C148.915 189.3 149.355 190.63 149.355 192.37V195.46H141.645V197.23C141.645 198.25 141.885 198.99 142.365 199.45C142.865 199.89 143.645 200.11 144.705 200.11C145.745 200.11 147.045 199.95 148.605 199.63L148.665 201.85C146.805 202.19 145.475 202.36 144.675 202.36C142.695 202.36 141.265 201.93 140.385 201.07C139.525 200.21 139.095 198.88 139.095 197.08V192.37C139.095 190.63 139.515 189.3 140.355 188.38C141.215 187.46 142.495 187 144.195 187ZM144.195 189.13C143.415 189.13 142.795 189.38 142.335 189.88C141.875 190.36 141.645 191.06 141.645 191.98V193.42H146.805V192.07C146.805 191.11 146.565 190.38 146.085 189.88C145.625 189.38 144.995 189.13 144.195 189.13Z" fill="white"/>
<path d="M742.777 575C744.057 575 745.037 575.44 745.717 576.32C746.417 577.18 746.767 578.41 746.767 580.01V590H744.217V580.37C744.217 578.37 743.567 577.37 742.267 577.37C741.687 577.37 741.097 577.59 740.497 578.03C739.897 578.47 739.377 579.07 738.937 579.83V590H736.387V575.36H738.787V577.55C739.327 576.73 739.927 576.1 740.587 575.66C741.267 575.22 741.997 575 742.777 575ZM755.957 575C757.737 575 759.057 575.48 759.917 576.44C760.797 577.38 761.237 578.72 761.237 580.46V584.9C761.237 586.64 760.797 587.99 759.917 588.95C759.057 589.89 757.737 590.36 755.957 590.36C754.177 590.36 752.847 589.89 751.967 588.95C751.107 587.99 750.677 586.64 750.677 584.9V580.46C750.677 578.72 751.107 577.38 751.967 576.44C752.847 575.48 754.177 575 755.957 575ZM755.957 577.13C755.097 577.13 754.427 577.4 753.947 577.94C753.467 578.48 753.227 579.25 753.227 580.25V585.11C753.227 586.11 753.467 586.88 753.947 587.42C754.427 587.96 755.097 588.23 755.957 588.23C756.817 588.23 757.487 587.96 757.967 587.42C758.447 586.88 758.687 586.11 758.687 585.11V580.22C758.687 579.22 758.447 578.46 757.967 577.94C757.487 577.4 756.817 577.13 755.957 577.13ZM775.207 590H772.777V587.63C771.577 589.45 770.207 590.36 768.667 590.36C767.427 590.36 766.477 589.94 765.817 589.1C765.157 588.24 764.827 586.99 764.827 585.35V580.01C764.827 578.43 765.187 577.2 765.907 576.32C766.647 575.44 767.697 575 769.057 575C769.637 575 770.247 575.15 770.887 575.45C771.527 575.73 772.117 576.08 772.657 576.5V569.51H775.207V590ZM769.627 577.28C768.907 577.28 768.347 577.54 767.947 578.06C767.567 578.56 767.377 579.33 767.377 580.37V585.02C767.377 587.06 768.007 588.08 769.267 588.08C769.867 588.08 770.457 587.85 771.037 587.39C771.637 586.91 772.177 586.24 772.657 585.38V578.78C772.237 578.34 771.737 577.98 771.157 577.7C770.597 577.42 770.087 577.28 769.627 577.28ZM784.195 575C785.875 575 787.155 575.46 788.035 576.38C788.915 577.3 789.355 578.63 789.355 580.37V583.46H781.645V585.23C781.645 586.25 781.885 586.99 782.365 587.45C782.865 587.89 783.645 588.11 784.705 588.11C785.745 588.11 787.045 587.95 788.605 587.63L788.665 589.85C786.805 590.19 785.475 590.36 784.675 590.36C782.695 590.36 781.265 589.93 780.385 589.07C779.525 588.21 779.095 586.88 779.095 585.08V580.37C779.095 578.63 779.515 577.3 780.355 576.38C781.215 575.46 782.495 575 784.195 575ZM784.195 577.13C783.415 577.13 782.795 577.38 782.335 577.88C781.875 578.36 781.645 579.06 781.645 579.98V581.42H786.805V580.07C786.805 579.11 786.565 578.38 786.085 577.88C785.625 577.38 784.995 577.13 784.195 577.13Z" fill="white"/>
</svg>
