<svg width="1228" height="918" viewBox="0 0 1228 918" fill="none" xmlns="http://www.w3.org/2000/svg">
<g filter="url(#filter0_d)">
<path d="M1180 20H610C596.745 20 586 30.7452 586 44V866C586 879.255 596.745 890 610 890H1180C1193.25 890 1204 879.255 1204 866V44C1204 30.7452 1193.25 20 1180 20Z" fill="white"/>
</g>
<path d="M580 457.5H1081.5M227 77L580 457.5L227 77ZM580 457.5L140.5 205.5L580 457.5ZM580 457.5L90 335L580 457.5ZM580 457.5H61H580ZM580 457.5L90 594L580 457.5ZM580 457.5L140.5 732L580 457.5ZM580 457.5L227 843L580 457.5ZM580 457.5L943.5 212L580 457.5ZM580 457.5L940 676.5L580 457.5Z" stroke="#0068E8" stroke-width="3"/>
<path d="M262 807H197C178.222 807 163 822.222 163 841C163 859.778 178.222 875 197 875H262C280.778 875 296 859.778 296 841C296 822.222 280.778 807 262 807Z" fill="#FAF9F8"/>
<path d="M178 695H113C94.2223 695 79 710.222 79 729C79 747.778 94.2223 763 113 763H178C196.778 763 212 747.778 212 729C212 710.222 196.778 695 178 695Z" fill="#FAF9F8"/>
<path d="M130 559H65C46.2223 559 31 574.222 31 593C31 611.778 46.2223 627 65 627H130C148.778 627 164 611.778 164 593C164 574.222 148.778 559 130 559Z" fill="#FAF9F8"/>
<path d="M99 425H34C15.2223 425 0 440.222 0 459C0 477.778 15.2223 493 34 493H99C117.778 493 133 477.778 133 459C133 440.222 117.778 425 99 425Z" fill="#FAF9F8"/>
<path d="M131 299H66C47.2223 299 32 314.222 32 333C32 351.778 47.2223 367 66 367H131C149.778 367 165 351.778 165 333C165 314.222 149.778 299 131 299Z" fill="#FAF9F8"/>
<path d="M178 169H113C94.2223 169 79 184.222 79 203C79 221.778 94.2223 237 113 237H178C196.778 237 212 221.778 212 203C212 184.222 196.778 169 178 169Z" fill="#FAF9F8"/>
<path d="M262 41H197C178.222 41 163 56.2223 163 75C163 93.7777 178.222 109 197 109H262C280.778 109 296 93.7777 296 75C296 56.2223 280.778 41 262 41Z" fill="#FAF9F8"/>
<path d="M1034 169H958C939.222 169 924 184.222 924 203C924 221.778 939.222 237 958 237H1034C1052.78 237 1068 221.778 1068 203C1068 184.222 1052.78 169 1034 169Z" fill="white"/>
<path d="M1118 423H1042C1023.22 423 1008 438.222 1008 457C1008 475.778 1023.22 491 1042 491H1118C1136.78 491 1152 475.778 1152 457C1152 438.222 1136.78 423 1118 423Z" fill="white"/>
<path d="M1034 650H958C939.222 650 924 665.222 924 684C924 702.778 939.222 718 958 718H1034C1052.78 718 1068 702.778 1068 684C1068 665.222 1052.78 650 1034 650Z" fill="white"/>
<g filter="url(#filter1_d)">
<path d="M937 202.5C937 190.074 947.07 180 959.5 180H1036.5C1048.93 180 1059 190.074 1059 202.5C1059 214.926 1048.93 225 1036.5 225H959.5C947.07 225 937 214.926 937 202.5Z" fill="white"/>
</g>
<g filter="url(#filter2_d)">
<path d="M1021 455.5C1021 443.074 1031.07 433 1043.5 433H1120.5C1132.93 433 1143 443.074 1143 455.5C1143 467.926 1132.93 478 1120.5 478H1043.5C1031.07 478 1021 467.926 1021 455.5Z" fill="white"/>
</g>
<g filter="url(#filter3_d)">
<path d="M937 682.5C937 670.074 947.07 660 959.5 660H1036.5C1048.93 660 1059 670.074 1059 682.5C1059 694.926 1048.93 705 1036.5 705H959.5C947.07 705 937 694.926 937 682.5Z" fill="white"/>
</g>
<path d="M42 332.5C42 320.074 52.074 310 64.5 310H130.5C142.926 310 153 320.074 153 332.5C153 344.926 142.926 355 130.5 355H64.5C52.074 355 42 344.926 42 332.5Z" fill="#0D0253"/>
<path d="M11 458.5C11 446.074 21.074 436 33.5 436H99.5C111.926 436 122 446.074 122 458.5C122 470.926 111.926 481 99.5 481H33.5C21.074 481 11 470.926 11 458.5Z" fill="#0D0253"/>
<path d="M42 592.5C42 580.074 52.074 570 64.5 570H130.5C142.926 570 153 580.074 153 592.5C153 604.926 142.926 615 130.5 615H64.5C52.074 615 42 604.926 42 592.5Z" fill="#0D0253"/>
<path d="M90 728.5C90 716.074 100.074 706 112.5 706H178.5C190.926 706 201 716.074 201 728.5C201 740.926 190.926 751 178.5 751H112.5C100.074 751 90 740.926 90 728.5Z" fill="#0D0253"/>
<path d="M174 840.5C174 828.074 184.074 818 196.5 818H262.5C274.926 818 285 828.074 285 840.5C285 852.926 274.926 863 262.5 863H196.5C184.074 863 174 852.926 174 840.5Z" fill="#0D0253"/>
<path d="M174 74.5C174 62.074 184.074 52 196.5 52H262.5C274.926 52 285 62.074 285 74.5C285 86.926 274.926 97 262.5 97H196.5C184.074 97 174 86.926 174 74.5Z" fill="#0D0253"/>
<path d="M90 203.5C90 191.074 100.074 181 112.5 181H178.5C190.926 181 201 191.074 201 203.5C201 215.926 190.926 226 178.5 226H112.5C100.074 226 90 215.926 90 203.5Z" fill="#0D0253"/>
<path d="M583 588C656.454 588 716 528.454 716 455C716 381.546 656.454 322 583 322C509.546 322 450 381.546 450 455C450 528.454 509.546 588 583 588Z" fill="white"/>
<g filter="url(#filter4_d)">
<path d="M583 570C646.513 570 698 518.513 698 455C698 391.487 646.513 340 583 340C519.487 340 468 391.487 468 455C468 518.513 519.487 570 583 570Z" fill="#0D0253"/>
</g>
<path d="M539.002 432.35V434.66H533.302V452H530.752V434.66H525.052V432.35H539.002ZM545.709 437C545.989 437 546.209 437.02 546.369 437.06V439.94C546.069 439.88 545.679 439.85 545.199 439.85C543.799 439.85 542.689 440.55 541.869 441.95V452H539.319V437.36H541.719V439.55C542.259 438.73 542.859 438.1 543.519 437.66C544.199 437.22 544.929 437 545.709 437ZM553.105 437C554.825 437 556.075 437.39 556.855 438.17C557.655 438.93 558.055 440.15 558.055 441.83V452H555.625V449.66C554.465 451.46 553.155 452.36 551.695 452.36C550.535 452.36 549.605 451.96 548.905 451.16C548.225 450.36 547.885 449.27 547.885 447.89V447.05C547.885 445.85 548.295 444.86 549.115 444.08C549.935 443.28 551.035 442.88 552.415 442.88C553.175 442.88 554.205 443.01 555.505 443.27V441.62C555.505 440.76 555.305 440.14 554.905 439.76C554.525 439.38 553.925 439.19 553.105 439.19C552.145 439.19 550.795 439.34 549.055 439.64V437.45C550.935 437.15 552.285 437 553.105 437ZM553.045 444.86C552.205 444.86 551.565 445.08 551.125 445.52C550.685 445.96 550.465 446.58 550.465 447.38V447.71C550.465 448.45 550.635 449.03 550.975 449.45C551.315 449.87 551.745 450.08 552.265 450.08C552.805 450.08 553.355 449.85 553.915 449.39C554.495 448.91 555.025 448.24 555.505 447.38V445.07C554.745 444.93 553.925 444.86 553.045 444.86ZM572.192 452H569.762V449.63C568.562 451.45 567.192 452.36 565.652 452.36C564.412 452.36 563.462 451.94 562.802 451.1C562.142 450.24 561.812 448.99 561.812 447.35V442.01C561.812 440.43 562.172 439.2 562.892 438.32C563.632 437.44 564.682 437 566.042 437C566.622 437 567.232 437.15 567.872 437.45C568.512 437.73 569.102 438.08 569.642 438.5V431.51H572.192V452ZM566.612 439.28C565.892 439.28 565.332 439.54 564.932 440.06C564.552 440.56 564.362 441.33 564.362 442.37V447.02C564.362 449.06 564.992 450.08 566.252 450.08C566.852 450.08 567.442 449.85 568.022 449.39C568.622 448.91 569.162 448.24 569.642 447.38V440.78C569.222 440.34 568.722 439.98 568.142 439.7C567.582 439.42 567.072 439.28 566.612 439.28ZM578.929 437.36V452H576.379V437.36H578.929ZM577.639 431.45C578.179 431.45 578.589 431.57 578.869 431.81C579.169 432.05 579.319 432.39 579.319 432.83V433.7C579.319 434.14 579.169 434.48 578.869 434.72C578.589 434.94 578.179 435.05 577.639 435.05C577.119 435.05 576.709 434.94 576.409 434.72C576.129 434.48 575.989 434.14 575.989 433.7V432.83C575.989 432.39 576.129 432.05 576.409 431.81C576.709 431.57 577.119 431.45 577.639 431.45ZM586.118 437.36H590.018V439.46H586.118V448.04C586.118 448.8 586.268 449.35 586.568 449.69C586.888 450.01 587.378 450.17 588.038 450.17C588.878 450.17 589.698 450.07 590.498 449.87L590.558 452C589.678 452.24 588.878 452.36 588.158 452.36C586.558 452.36 585.388 452.01 584.648 451.31C583.928 450.59 583.568 449.43 583.568 447.83V439.46H581.468V437.36H583.568L584.048 433.46H586.118V437.36ZM595.804 437.36V452H593.254V437.36H595.804ZM594.514 431.45C595.054 431.45 595.464 431.57 595.744 431.81C596.044 432.05 596.194 432.39 596.194 432.83V433.7C596.194 434.14 596.044 434.48 595.744 434.72C595.464 434.94 595.054 435.05 594.514 435.05C593.994 435.05 593.584 434.94 593.284 434.72C593.004 434.48 592.864 434.14 592.864 433.7V432.83C592.864 432.39 593.004 432.05 593.284 431.81C593.584 431.57 593.994 431.45 594.514 431.45ZM604.973 437C606.753 437 608.073 437.48 608.933 438.44C609.813 439.38 610.253 440.72 610.253 442.46V446.9C610.253 448.64 609.813 449.99 608.933 450.95C608.073 451.89 606.753 452.36 604.973 452.36C603.193 452.36 601.863 451.89 600.983 450.95C600.123 449.99 599.693 448.64 599.693 446.9V442.46C599.693 440.72 600.123 439.38 600.983 438.44C601.863 437.48 603.193 437 604.973 437ZM604.973 439.13C604.113 439.13 603.443 439.4 602.963 439.94C602.483 440.48 602.243 441.25 602.243 442.25V447.11C602.243 448.11 602.483 448.88 602.963 449.42C603.443 449.96 604.113 450.23 604.973 450.23C605.833 450.23 606.503 449.96 606.983 449.42C607.463 448.88 607.703 448.11 607.703 447.11V442.22C607.703 441.22 607.463 440.46 606.983 439.94C606.503 439.4 605.833 439.13 604.973 439.13ZM620.533 437C621.813 437 622.793 437.44 623.473 438.32C624.173 439.18 624.523 440.41 624.523 442.01V452H621.973V442.37C621.973 440.37 621.323 439.37 620.023 439.37C619.443 439.37 618.853 439.59 618.253 440.03C617.653 440.47 617.133 441.07 616.693 441.83V452H614.143V437.36H616.543V439.55C617.083 438.73 617.683 438.1 618.343 437.66C619.023 437.22 619.753 437 620.533 437ZM633.203 437C634.923 437 636.173 437.39 636.953 438.17C637.753 438.93 638.153 440.15 638.153 441.83V452H635.723V449.66C634.563 451.46 633.253 452.36 631.793 452.36C630.633 452.36 629.703 451.96 629.003 451.16C628.323 450.36 627.983 449.27 627.983 447.89V447.05C627.983 445.85 628.393 444.86 629.213 444.08C630.033 443.28 631.133 442.88 632.513 442.88C633.273 442.88 634.303 443.01 635.603 443.27V441.62C635.603 440.76 635.403 440.14 635.003 439.76C634.623 439.38 634.023 439.19 633.203 439.19C632.243 439.19 630.893 439.34 629.153 439.64V437.45C631.033 437.15 632.383 437 633.203 437ZM633.143 444.86C632.303 444.86 631.663 445.08 631.223 445.52C630.783 445.96 630.563 446.58 630.563 447.38V447.71C630.563 448.45 630.733 449.03 631.073 449.45C631.413 449.87 631.843 450.08 632.363 450.08C632.903 450.08 633.453 449.85 634.013 449.39C634.593 448.91 635.123 448.24 635.603 447.38V445.07C634.843 444.93 634.023 444.86 633.143 444.86ZM644.759 431.51V452H642.209V431.51H644.759ZM523.634 464.35L517.724 484H514.364L508.634 464.35H511.334L516.044 481.54L520.934 464.35H523.634ZM531.475 463.99C533.835 463.99 535.585 464.47 536.725 465.43C537.885 466.37 538.465 467.72 538.465 469.48V470.2C538.465 472.08 537.905 473.53 536.785 474.55C535.665 475.57 533.975 476.08 531.715 476.08C530.815 476.08 529.855 476 528.835 475.84V484H526.285V464.14C527.985 464.04 529.715 463.99 531.475 463.99ZM531.415 466.15C530.535 466.15 529.675 466.17 528.835 466.21V473.65C530.035 473.81 530.955 473.89 531.595 473.89C534.475 473.89 535.915 472.62 535.915 470.08V469.57C535.915 468.43 535.555 467.58 534.835 467.02C534.115 466.44 532.975 466.15 531.415 466.15ZM550.607 484L544.127 467.41V484H541.607V464.35H545.687L552.047 480.94V464.35H554.567V484H550.607ZM570.699 463.99C571.439 463.99 572.289 464.06 573.249 464.2C574.209 464.32 575.089 464.46 575.889 464.62L575.829 466.87C573.569 466.43 571.859 466.21 570.699 466.21C569.319 466.21 568.329 466.49 567.729 467.05C567.149 467.59 566.859 468.5 566.859 469.78V478.48C566.859 479.76 567.149 480.69 567.729 481.27C568.329 481.83 569.319 482.11 570.699 482.11C571.599 482.11 572.769 481.97 574.209 481.69V475.06H570.459V472.66H576.759V483.25C574.359 483.99 572.339 484.36 570.699 484.36C568.399 484.36 566.759 483.87 565.779 482.89C564.799 481.91 564.309 480.38 564.309 478.3V470.05C564.309 467.93 564.809 466.39 565.809 465.43C566.809 464.47 568.439 463.99 570.699 463.99ZM585.42 469C587.14 469 588.39 469.39 589.17 470.17C589.97 470.93 590.37 472.15 590.37 473.83V484H587.94V481.66C586.78 483.46 585.47 484.36 584.01 484.36C582.85 484.36 581.92 483.96 581.22 483.16C580.54 482.36 580.2 481.27 580.2 479.89V479.05C580.2 477.85 580.61 476.86 581.43 476.08C582.25 475.28 583.35 474.88 584.73 474.88C585.49 474.88 586.52 475.01 587.82 475.27V473.62C587.82 472.76 587.62 472.14 587.22 471.76C586.84 471.38 586.24 471.19 585.42 471.19C584.46 471.19 583.11 471.34 581.37 471.64V469.45C583.25 469.15 584.6 469 585.42 469ZM585.36 476.86C584.52 476.86 583.88 477.08 583.44 477.52C583 477.96 582.78 478.58 582.78 479.38V479.71C582.78 480.45 582.95 481.03 583.29 481.45C583.63 481.87 584.06 482.08 584.58 482.08C585.12 482.08 585.67 481.85 586.23 481.39C586.81 480.91 587.34 480.24 587.82 479.38V477.07C587.06 476.93 586.24 476.86 585.36 476.86ZM597.426 469.36H601.326V471.46H597.426V480.04C597.426 480.8 597.576 481.35 597.876 481.69C598.196 482.01 598.686 482.17 599.346 482.17C600.186 482.17 601.006 482.07 601.806 481.87L601.866 484C600.986 484.24 600.186 484.36 599.466 484.36C597.866 484.36 596.696 484.01 595.956 483.31C595.236 482.59 594.876 481.43 594.876 479.83V471.46H592.776V469.36H594.876L595.356 465.46H597.426V469.36ZM609.363 469C611.043 469 612.323 469.46 613.203 470.38C614.083 471.3 614.523 472.63 614.523 474.37V477.46H606.813V479.23C606.813 480.25 607.053 480.99 607.533 481.45C608.033 481.89 608.813 482.11 609.873 482.11C610.913 482.11 612.213 481.95 613.773 481.63L613.833 483.85C611.973 484.19 610.643 484.36 609.843 484.36C607.863 484.36 606.433 483.93 605.553 483.07C604.693 482.21 604.263 480.88 604.263 479.08V474.37C604.263 472.63 604.683 471.3 605.523 470.38C606.383 469.46 607.663 469 609.363 469ZM609.363 471.13C608.583 471.13 607.963 471.38 607.503 471.88C607.043 472.36 606.813 473.06 606.813 473.98V475.42H611.973V474.07C611.973 473.11 611.733 472.38 611.253 471.88C610.793 471.38 610.163 471.13 609.363 471.13ZM635.767 469.36L632.377 484H629.167L626.197 471.58L623.197 484H619.987L616.627 469.36H619.327L621.697 481.75L624.547 469.36H627.847L630.667 481.75L633.067 469.36H635.767ZM642.783 469C644.503 469 645.753 469.39 646.533 470.17C647.333 470.93 647.733 472.15 647.733 473.83V484H645.303V481.66C644.143 483.46 642.833 484.36 641.373 484.36C640.213 484.36 639.283 483.96 638.583 483.16C637.903 482.36 637.563 481.27 637.563 479.89V479.05C637.563 477.85 637.973 476.86 638.793 476.08C639.613 475.28 640.713 474.88 642.093 474.88C642.853 474.88 643.883 475.01 645.183 475.27V473.62C645.183 472.76 644.983 472.14 644.583 471.76C644.203 471.38 643.603 471.19 642.783 471.19C641.823 471.19 640.473 471.34 638.733 471.64V469.45C640.613 469.15 641.963 469 642.783 469ZM642.723 476.86C641.883 476.86 641.243 477.08 640.803 477.52C640.363 477.96 640.143 478.58 640.143 479.38V479.71C640.143 480.45 640.313 481.03 640.653 481.45C640.993 481.87 641.423 482.08 641.943 482.08C642.483 482.08 643.033 481.85 643.593 481.39C644.173 480.91 644.703 480.24 645.183 479.38V477.07C644.423 476.93 643.603 476.86 642.723 476.86ZM662.469 469.36L655.749 489.55H653.199L655.119 484H654.159L649.989 469.36H652.779L655.929 482.17L659.829 469.36H662.469Z" fill="white"/>
<path d="M205.075 70C205.975 70 206.995 70.13 208.135 70.39L208.075 72.64C206.915 72.38 205.915 72.25 205.075 72.25C204.135 72.25 203.415 72.51 202.915 73.03C202.435 73.55 202.195 74.29 202.195 75.25V80.08C202.195 81.08 202.445 81.84 202.945 82.36C203.465 82.86 204.175 83.11 205.075 83.11C205.635 83.11 206.125 83.08 206.545 83.02C206.965 82.96 207.475 82.86 208.075 82.72L208.135 84.97C206.915 85.23 205.885 85.36 205.045 85.36C201.445 85.36 199.645 83.54 199.645 79.9V75.46C199.645 71.82 201.455 70 205.075 70ZM214.184 64.51V85H211.634V64.51H214.184ZM220.922 70.36V85H218.372V70.36H220.922ZM219.632 64.45C220.172 64.45 220.582 64.57 220.862 64.81C221.162 65.05 221.312 65.39 221.312 65.83V66.7C221.312 67.14 221.162 67.48 220.862 67.72C220.582 67.94 220.172 68.05 219.632 68.05C219.112 68.05 218.702 67.94 218.402 67.72C218.122 67.48 217.982 67.14 217.982 66.7V65.83C217.982 65.39 218.122 65.05 218.402 64.81C218.702 64.57 219.112 64.45 219.632 64.45ZM229.911 70C231.591 70 232.871 70.46 233.751 71.38C234.631 72.3 235.071 73.63 235.071 75.37V78.46H227.361V80.23C227.361 81.25 227.601 81.99 228.081 82.45C228.581 82.89 229.361 83.11 230.421 83.11C231.461 83.11 232.761 82.95 234.321 82.63L234.381 84.85C232.521 85.19 231.191 85.36 230.391 85.36C228.411 85.36 226.981 84.93 226.101 84.07C225.241 83.21 224.811 81.88 224.811 80.08V75.37C224.811 73.63 225.231 72.3 226.071 71.38C226.931 70.46 228.211 70 229.911 70ZM229.911 72.13C229.131 72.13 228.511 72.38 228.051 72.88C227.591 73.36 227.361 74.06 227.361 74.98V76.42H232.521V75.07C232.521 74.11 232.281 73.38 231.801 72.88C231.341 72.38 230.711 72.13 229.911 72.13ZM244.919 70C246.199 70 247.179 70.44 247.859 71.32C248.559 72.18 248.909 73.41 248.909 75.01V85H246.359V75.37C246.359 73.37 245.709 72.37 244.409 72.37C243.829 72.37 243.239 72.59 242.639 73.03C242.039 73.47 241.519 74.07 241.079 74.83V85H238.529V70.36H240.929V72.55C241.469 71.73 242.069 71.1 242.729 70.66C243.409 70.22 244.139 70 244.919 70ZM256.119 70.36H260.019V72.46H256.119V81.04C256.119 81.8 256.269 82.35 256.569 82.69C256.889 83.01 257.379 83.17 258.039 83.17C258.879 83.17 259.699 83.07 260.499 82.87L260.559 85C259.679 85.24 258.879 85.36 258.159 85.36C256.559 85.36 255.389 85.01 254.649 84.31C253.929 83.59 253.569 82.43 253.569 80.83V72.46H251.469V70.36H253.569L254.049 66.46H256.119V70.36Z" fill="white"/>
<path d="M968.675 198C969.515 198 970.525 198.12 971.705 198.36L971.645 200.52C970.605 200.28 969.655 200.16 968.795 200.16C966.995 200.16 966.095 200.74 966.095 201.9V202.17C966.095 202.53 966.185 202.82 966.365 203.04C966.565 203.26 966.915 203.49 967.415 203.73L970.235 205.05C971.935 205.85 972.785 207.02 972.785 208.56V209.22C972.765 210.6 972.345 211.64 971.525 212.34C970.725 213.02 969.455 213.36 967.715 213.36C966.815 213.36 965.525 213.15 963.845 212.73L963.965 210.45C965.465 210.89 966.695 211.11 967.655 211.11C968.635 211.11 969.315 210.98 969.695 210.72C970.075 210.44 970.265 209.99 970.265 209.37V209.07C970.265 208.59 970.165 208.21 969.965 207.93C969.785 207.65 969.475 207.41 969.035 207.21L966.125 205.92C965.245 205.52 964.595 205.04 964.175 204.48C963.775 203.92 963.575 203.27 963.575 202.53V202.11C963.615 200.75 964.035 199.73 964.835 199.05C965.655 198.35 966.935 198 968.675 198ZM980.73 198C982.41 198 983.69 198.46 984.57 199.38C985.45 200.3 985.89 201.63 985.89 203.37V206.46H978.18V208.23C978.18 209.25 978.42 209.99 978.9 210.45C979.4 210.89 980.18 211.11 981.24 211.11C982.28 211.11 983.58 210.95 985.14 210.63L985.2 212.85C983.34 213.19 982.01 213.36 981.21 213.36C979.23 213.36 977.8 212.93 976.92 212.07C976.06 211.21 975.63 209.88 975.63 208.08V203.37C975.63 201.63 976.05 200.3 976.89 199.38C977.75 198.46 979.03 198 980.73 198ZM980.73 200.13C979.95 200.13 979.33 200.38 978.87 200.88C978.41 201.36 978.18 202.06 978.18 202.98V204.42H983.34V203.07C983.34 202.11 983.1 201.38 982.62 200.88C982.16 200.38 981.53 200.13 980.73 200.13ZM995.738 198C996.018 198 996.238 198.02 996.398 198.06V200.94C996.098 200.88 995.708 200.85 995.228 200.85C993.828 200.85 992.718 201.55 991.898 202.95V213H989.348V198.36H991.748V200.55C992.288 199.73 992.888 199.1 993.548 198.66C994.228 198.22 994.958 198 995.738 198ZM1010.25 198.36L1005.72 213H1002.39L997.89 198.36H1000.59L1004.07 211.14L1007.55 198.36H1010.25ZM1017.35 198C1019.03 198 1020.31 198.46 1021.19 199.38C1022.07 200.3 1022.51 201.63 1022.51 203.37V206.46H1014.8V208.23C1014.8 209.25 1015.04 209.99 1015.52 210.45C1016.02 210.89 1016.8 211.11 1017.86 211.11C1018.9 211.11 1020.2 210.95 1021.76 210.63L1021.82 212.85C1019.96 213.19 1018.63 213.36 1017.83 213.36C1015.85 213.36 1014.42 212.93 1013.54 212.07C1012.68 211.21 1012.25 209.88 1012.25 208.08V203.37C1012.25 201.63 1012.67 200.3 1013.51 199.38C1014.37 198.46 1015.65 198 1017.35 198ZM1017.35 200.13C1016.57 200.13 1015.95 200.38 1015.49 200.88C1015.03 201.36 1014.8 202.06 1014.8 202.98V204.42H1019.96V203.07C1019.96 202.11 1019.72 201.38 1019.24 200.88C1018.78 200.38 1018.15 200.13 1017.35 200.13ZM1032.36 198C1032.64 198 1032.86 198.02 1033.02 198.06V200.94C1032.72 200.88 1032.33 200.85 1031.85 200.85C1030.45 200.85 1029.34 201.55 1028.52 202.95V213H1025.97V198.36H1028.37V200.55C1028.91 199.73 1029.51 199.1 1030.17 198.66C1030.85 198.22 1031.58 198 1032.36 198Z" fill="#0F0935"/>
<path d="M1052.68 450C1053.52 450 1054.53 450.12 1055.71 450.36L1055.65 452.52C1054.61 452.28 1053.66 452.16 1052.8 452.16C1051 452.16 1050.1 452.74 1050.1 453.9V454.17C1050.1 454.53 1050.19 454.82 1050.37 455.04C1050.57 455.26 1050.92 455.49 1051.42 455.73L1054.24 457.05C1055.94 457.85 1056.79 459.02 1056.79 460.56V461.22C1056.77 462.6 1056.35 463.64 1055.53 464.34C1054.73 465.02 1053.46 465.36 1051.72 465.36C1050.82 465.36 1049.53 465.15 1047.85 464.73L1047.97 462.45C1049.47 462.89 1050.7 463.11 1051.66 463.11C1052.64 463.11 1053.32 462.98 1053.7 462.72C1054.08 462.44 1054.27 461.99 1054.27 461.37V461.07C1054.27 460.59 1054.17 460.21 1053.97 459.93C1053.79 459.65 1053.48 459.41 1053.04 459.21L1050.12 457.92C1049.25 457.52 1048.6 457.04 1048.18 456.48C1047.78 455.92 1047.58 455.27 1047.58 454.53V454.11C1047.62 452.75 1048.04 451.73 1048.84 451.05C1049.66 450.35 1050.94 450 1052.68 450ZM1064.73 450C1066.41 450 1067.69 450.46 1068.57 451.38C1069.45 452.3 1069.89 453.63 1069.89 455.37V458.46H1062.18V460.23C1062.18 461.25 1062.42 461.99 1062.9 462.45C1063.4 462.89 1064.18 463.11 1065.24 463.11C1066.28 463.11 1067.58 462.95 1069.14 462.63L1069.2 464.85C1067.34 465.19 1066.01 465.36 1065.21 465.36C1063.23 465.36 1061.8 464.93 1060.92 464.07C1060.06 463.21 1059.63 461.88 1059.63 460.08V455.37C1059.63 453.63 1060.05 452.3 1060.89 451.38C1061.75 450.46 1063.03 450 1064.73 450ZM1064.73 452.13C1063.95 452.13 1063.33 452.38 1062.87 452.88C1062.41 453.36 1062.18 454.06 1062.18 454.98V456.42H1067.34V455.07C1067.34 454.11 1067.1 453.38 1066.62 452.88C1066.16 452.38 1065.53 452.13 1064.73 452.13ZM1079.74 450C1080.02 450 1080.24 450.02 1080.4 450.06V452.94C1080.1 452.88 1079.71 452.85 1079.23 452.85C1077.83 452.85 1076.72 453.55 1075.9 454.95V465H1073.35V450.36H1075.75V452.55C1076.29 451.73 1076.89 451.1 1077.55 450.66C1078.23 450.22 1078.96 450 1079.74 450ZM1094.25 450.36L1089.72 465H1086.39L1081.89 450.36H1084.59L1088.07 463.14L1091.55 450.36H1094.25ZM1101.35 450C1103.03 450 1104.31 450.46 1105.19 451.38C1106.07 452.3 1106.51 453.63 1106.51 455.37V458.46H1098.8V460.23C1098.8 461.25 1099.04 461.99 1099.52 462.45C1100.02 462.89 1100.8 463.11 1101.86 463.11C1102.9 463.11 1104.2 462.95 1105.76 462.63L1105.82 464.85C1103.96 465.19 1102.63 465.36 1101.83 465.36C1099.85 465.36 1098.42 464.93 1097.54 464.07C1096.68 463.21 1096.25 461.88 1096.25 460.08V455.37C1096.25 453.63 1096.67 452.3 1097.51 451.38C1098.37 450.46 1099.65 450 1101.35 450ZM1101.35 452.13C1100.57 452.13 1099.95 452.38 1099.49 452.88C1099.03 453.36 1098.8 454.06 1098.8 454.98V456.42H1103.96V455.07C1103.96 454.11 1103.72 453.38 1103.24 452.88C1102.78 452.38 1102.15 452.13 1101.35 452.13ZM1116.36 450C1116.64 450 1116.86 450.02 1117.02 450.06V452.94C1116.72 452.88 1116.33 452.85 1115.85 452.85C1114.45 452.85 1113.34 453.55 1112.52 454.95V465H1109.97V450.36H1112.37V452.55C1112.91 451.73 1113.51 451.1 1114.17 450.66C1114.85 450.22 1115.58 450 1116.36 450Z" fill="#0F0935"/>
<path d="M968.675 678C969.515 678 970.525 678.12 971.705 678.36L971.645 680.52C970.605 680.28 969.655 680.16 968.795 680.16C966.995 680.16 966.095 680.74 966.095 681.9V682.17C966.095 682.53 966.185 682.82 966.365 683.04C966.565 683.26 966.915 683.49 967.415 683.73L970.235 685.05C971.935 685.85 972.785 687.02 972.785 688.56V689.22C972.765 690.6 972.345 691.64 971.525 692.34C970.725 693.02 969.455 693.36 967.715 693.36C966.815 693.36 965.525 693.15 963.845 692.73L963.965 690.45C965.465 690.89 966.695 691.11 967.655 691.11C968.635 691.11 969.315 690.98 969.695 690.72C970.075 690.44 970.265 689.99 970.265 689.37V689.07C970.265 688.59 970.165 688.21 969.965 687.93C969.785 687.65 969.475 687.41 969.035 687.21L966.125 685.92C965.245 685.52 964.595 685.04 964.175 684.48C963.775 683.92 963.575 683.27 963.575 682.53V682.11C963.615 680.75 964.035 679.73 964.835 679.05C965.655 678.35 966.935 678 968.675 678ZM980.73 678C982.41 678 983.69 678.46 984.57 679.38C985.45 680.3 985.89 681.63 985.89 683.37V686.46H978.18V688.23C978.18 689.25 978.42 689.99 978.9 690.45C979.4 690.89 980.18 691.11 981.24 691.11C982.28 691.11 983.58 690.95 985.14 690.63L985.2 692.85C983.34 693.19 982.01 693.36 981.21 693.36C979.23 693.36 977.8 692.93 976.92 692.07C976.06 691.21 975.63 689.88 975.63 688.08V683.37C975.63 681.63 976.05 680.3 976.89 679.38C977.75 678.46 979.03 678 980.73 678ZM980.73 680.13C979.95 680.13 979.33 680.38 978.87 680.88C978.41 681.36 978.18 682.06 978.18 682.98V684.42H983.34V683.07C983.34 682.11 983.1 681.38 982.62 680.88C982.16 680.38 981.53 680.13 980.73 680.13ZM995.738 678C996.018 678 996.238 678.02 996.398 678.06V680.94C996.098 680.88 995.708 680.85 995.228 680.85C993.828 680.85 992.718 681.55 991.898 682.95V693H989.348V678.36H991.748V680.55C992.288 679.73 992.888 679.1 993.548 678.66C994.228 678.22 994.958 678 995.738 678ZM1010.25 678.36L1005.72 693H1002.39L997.89 678.36H1000.59L1004.07 691.14L1007.55 678.36H1010.25ZM1017.35 678C1019.03 678 1020.31 678.46 1021.19 679.38C1022.07 680.3 1022.51 681.63 1022.51 683.37V686.46H1014.8V688.23C1014.8 689.25 1015.04 689.99 1015.52 690.45C1016.02 690.89 1016.8 691.11 1017.86 691.11C1018.9 691.11 1020.2 690.95 1021.76 690.63L1021.82 692.85C1019.96 693.19 1018.63 693.36 1017.83 693.36C1015.85 693.36 1014.42 692.93 1013.54 692.07C1012.68 691.21 1012.25 689.88 1012.25 688.08V683.37C1012.25 681.63 1012.67 680.3 1013.51 679.38C1014.37 678.46 1015.65 678 1017.35 678ZM1017.35 680.13C1016.57 680.13 1015.95 680.38 1015.49 680.88C1015.03 681.36 1014.8 682.06 1014.8 682.98V684.42H1019.96V683.07C1019.96 682.11 1019.72 681.38 1019.24 680.88C1018.78 680.38 1018.15 680.13 1017.35 680.13ZM1032.36 678C1032.64 678 1032.86 678.02 1033.02 678.06V680.94C1032.72 680.88 1032.33 680.85 1031.85 680.85C1030.45 680.85 1029.34 681.55 1028.52 682.95V693H1025.97V678.36H1028.37V680.55C1028.91 679.73 1029.51 679.1 1030.17 678.66C1030.85 678.22 1031.58 678 1032.36 678Z" fill="#0F0935"/>
<path d="M116.075 198C116.975 198 117.995 198.13 119.135 198.39L119.075 200.64C117.915 200.38 116.915 200.25 116.075 200.25C115.135 200.25 114.415 200.51 113.915 201.03C113.435 201.55 113.195 202.29 113.195 203.25V208.08C113.195 209.08 113.445 209.84 113.945 210.36C114.465 210.86 115.175 211.11 116.075 211.11C116.635 211.11 117.125 211.08 117.545 211.02C117.965 210.96 118.475 210.86 119.075 210.72L119.135 212.97C117.915 213.23 116.885 213.36 116.045 213.36C112.445 213.36 110.645 211.54 110.645 207.9V203.46C110.645 199.82 112.455 198 116.075 198ZM125.184 192.51V213H122.634V192.51H125.184ZM131.922 198.36V213H129.372V198.36H131.922ZM130.632 192.45C131.172 192.45 131.582 192.57 131.862 192.81C132.162 193.05 132.312 193.39 132.312 193.83V194.7C132.312 195.14 132.162 195.48 131.862 195.72C131.582 195.94 131.172 196.05 130.632 196.05C130.112 196.05 129.702 195.94 129.402 195.72C129.122 195.48 128.982 195.14 128.982 194.7V193.83C128.982 193.39 129.122 193.05 129.402 192.81C129.702 192.57 130.112 192.45 130.632 192.45ZM140.911 198C142.591 198 143.871 198.46 144.751 199.38C145.631 200.3 146.071 201.63 146.071 203.37V206.46H138.361V208.23C138.361 209.25 138.601 209.99 139.081 210.45C139.581 210.89 140.361 211.11 141.421 211.11C142.461 211.11 143.761 210.95 145.321 210.63L145.381 212.85C143.521 213.19 142.191 213.36 141.391 213.36C139.411 213.36 137.981 212.93 137.101 212.07C136.241 211.21 135.811 209.88 135.811 208.08V203.37C135.811 201.63 136.231 200.3 137.071 199.38C137.931 198.46 139.211 198 140.911 198ZM140.911 200.13C140.131 200.13 139.511 200.38 139.051 200.88C138.591 201.36 138.361 202.06 138.361 202.98V204.42H143.521V203.07C143.521 202.11 143.281 201.38 142.801 200.88C142.341 200.38 141.711 200.13 140.911 200.13ZM155.919 198C157.199 198 158.179 198.44 158.859 199.32C159.559 200.18 159.909 201.41 159.909 203.01V213H157.359V203.37C157.359 201.37 156.709 200.37 155.409 200.37C154.829 200.37 154.239 200.59 153.639 201.03C153.039 201.47 152.519 202.07 152.079 202.83V213H149.529V198.36H151.929V200.55C152.469 199.73 153.069 199.1 153.729 198.66C154.409 198.22 155.139 198 155.919 198ZM167.119 198.36H171.019V200.46H167.119V209.04C167.119 209.8 167.269 210.35 167.569 210.69C167.889 211.01 168.379 211.17 169.039 211.17C169.879 211.17 170.699 211.07 171.499 210.87L171.559 213C170.679 213.24 169.879 213.36 169.159 213.36C167.559 213.36 166.389 213.01 165.649 212.31C164.929 211.59 164.569 210.43 164.569 208.83V200.46H162.469V198.36H164.569L165.049 194.46H167.119V198.36Z" fill="white"/>
<path d="M73.0747 328C73.9747 328 74.9947 328.13 76.1347 328.39L76.0747 330.64C74.9147 330.38 73.9147 330.25 73.0747 330.25C72.1347 330.25 71.4147 330.51 70.9147 331.03C70.4347 331.55 70.1947 332.29 70.1947 333.25V338.08C70.1947 339.08 70.4447 339.84 70.9447 340.36C71.4647 340.86 72.1747 341.11 73.0747 341.11C73.6347 341.11 74.1247 341.08 74.5447 341.02C74.9647 340.96 75.4747 340.86 76.0747 340.72L76.1347 342.97C74.9147 343.23 73.8847 343.36 73.0447 343.36C69.4447 343.36 67.6447 341.54 67.6447 337.9V333.46C67.6447 329.82 69.4547 328 73.0747 328ZM82.1842 322.51V343H79.6342V322.51H82.1842ZM88.9225 328.36V343H86.3725V328.36H88.9225ZM87.6325 322.45C88.1725 322.45 88.5825 322.57 88.8625 322.81C89.1625 323.05 89.3125 323.39 89.3125 323.83V324.7C89.3125 325.14 89.1625 325.48 88.8625 325.72C88.5825 325.94 88.1725 326.05 87.6325 326.05C87.1125 326.05 86.7025 325.94 86.4025 325.72C86.1225 325.48 85.9825 325.14 85.9825 324.7V323.83C85.9825 323.39 86.1225 323.05 86.4025 322.81C86.7025 322.57 87.1125 322.45 87.6325 322.45ZM97.9107 328C99.5907 328 100.871 328.46 101.751 329.38C102.631 330.3 103.071 331.63 103.071 333.37V336.46H95.3607V338.23C95.3607 339.25 95.6007 339.99 96.0807 340.45C96.5807 340.89 97.3607 341.11 98.4207 341.11C99.4607 341.11 100.761 340.95 102.321 340.63L102.381 342.85C100.521 343.19 99.1907 343.36 98.3907 343.36C96.4107 343.36 94.9807 342.93 94.1007 342.07C93.2407 341.21 92.8107 339.88 92.8107 338.08V333.37C92.8107 331.63 93.2307 330.3 94.0707 329.38C94.9307 328.46 96.2107 328 97.9107 328ZM97.9107 330.13C97.1307 330.13 96.5107 330.38 96.0507 330.88C95.5907 331.36 95.3607 332.06 95.3607 332.98V334.42H100.521V333.07C100.521 332.11 100.281 331.38 99.8007 330.88C99.3407 330.38 98.7107 330.13 97.9107 330.13ZM112.919 328C114.199 328 115.179 328.44 115.859 329.32C116.559 330.18 116.909 331.41 116.909 333.01V343H114.359V333.37C114.359 331.37 113.709 330.37 112.409 330.37C111.829 330.37 111.239 330.59 110.639 331.03C110.039 331.47 109.519 332.07 109.079 332.83V343H106.529V328.36H108.929V330.55C109.469 329.73 110.069 329.1 110.729 328.66C111.409 328.22 112.139 328 112.919 328ZM124.119 328.36H128.019V330.46H124.119V339.04C124.119 339.8 124.269 340.35 124.569 340.69C124.889 341.01 125.379 341.17 126.039 341.17C126.879 341.17 127.699 341.07 128.499 340.87L128.559 343C127.679 343.24 126.879 343.36 126.159 343.36C124.559 343.36 123.389 343.01 122.649 342.31C121.929 341.59 121.569 340.43 121.569 338.83V330.46H119.469V328.36H121.569L122.049 324.46H124.119V328.36Z" fill="white"/>
<path d="M39.0747 451C39.9747 451 40.9947 451.13 42.1347 451.39L42.0747 453.64C40.9147 453.38 39.9147 453.25 39.0747 453.25C38.1347 453.25 37.4147 453.51 36.9147 454.03C36.4347 454.55 36.1947 455.29 36.1947 456.25V461.08C36.1947 462.08 36.4447 462.84 36.9447 463.36C37.4647 463.86 38.1747 464.11 39.0747 464.11C39.6347 464.11 40.1247 464.08 40.5447 464.02C40.9647 463.96 41.4747 463.86 42.0747 463.72L42.1347 465.97C40.9147 466.23 39.8847 466.36 39.0447 466.36C35.4447 466.36 33.6447 464.54 33.6447 460.9V456.46C33.6447 452.82 35.4547 451 39.0747 451ZM48.1842 445.51V466H45.6342V445.51H48.1842ZM54.9225 451.36V466H52.3725V451.36H54.9225ZM53.6325 445.45C54.1725 445.45 54.5825 445.57 54.8625 445.81C55.1625 446.05 55.3125 446.39 55.3125 446.83V447.7C55.3125 448.14 55.1625 448.48 54.8625 448.72C54.5825 448.94 54.1725 449.05 53.6325 449.05C53.1125 449.05 52.7025 448.94 52.4025 448.72C52.1225 448.48 51.9825 448.14 51.9825 447.7V446.83C51.9825 446.39 52.1225 446.05 52.4025 445.81C52.7025 445.57 53.1125 445.45 53.6325 445.45ZM63.9107 451C65.5907 451 66.8707 451.46 67.7507 452.38C68.6307 453.3 69.0707 454.63 69.0707 456.37V459.46H61.3607V461.23C61.3607 462.25 61.6007 462.99 62.0807 463.45C62.5807 463.89 63.3607 464.11 64.4207 464.11C65.4607 464.11 66.7607 463.95 68.3207 463.63L68.3807 465.85C66.5207 466.19 65.1907 466.36 64.3907 466.36C62.4107 466.36 60.9807 465.93 60.1007 465.07C59.2407 464.21 58.8107 462.88 58.8107 461.08V456.37C58.8107 454.63 59.2307 453.3 60.0707 452.38C60.9307 451.46 62.2107 451 63.9107 451ZM63.9107 453.13C63.1307 453.13 62.5107 453.38 62.0507 453.88C61.5907 454.36 61.3607 455.06 61.3607 455.98V457.42H66.5207V456.07C66.5207 455.11 66.2807 454.38 65.8007 453.88C65.3407 453.38 64.7107 453.13 63.9107 453.13ZM78.9187 451C80.1987 451 81.1787 451.44 81.8587 452.32C82.5587 453.18 82.9087 454.41 82.9087 456.01V466H80.3587V456.37C80.3587 454.37 79.7087 453.37 78.4087 453.37C77.8287 453.37 77.2387 453.59 76.6387 454.03C76.0387 454.47 75.5187 455.07 75.0787 455.83V466H72.5287V451.36H74.9287V453.55C75.4687 452.73 76.0687 452.1 76.7287 451.66C77.4087 451.22 78.1387 451 78.9187 451ZM90.1186 451.36H94.0186V453.46H90.1186V462.04C90.1186 462.8 90.2686 463.35 90.5686 463.69C90.8886 464.01 91.3786 464.17 92.0386 464.17C92.8786 464.17 93.6986 464.07 94.4986 463.87L94.5586 466C93.6786 466.24 92.8786 466.36 92.1586 466.36C90.5586 466.36 89.3886 466.01 88.6486 465.31C87.9286 464.59 87.5686 463.43 87.5686 461.83V453.46H85.4686V451.36H87.5686L88.0486 447.46H90.1186V451.36Z" fill="white"/>
<path d="M73.0747 587C73.9747 587 74.9947 587.13 76.1347 587.39L76.0747 589.64C74.9147 589.38 73.9147 589.25 73.0747 589.25C72.1347 589.25 71.4147 589.51 70.9147 590.03C70.4347 590.55 70.1947 591.29 70.1947 592.25V597.08C70.1947 598.08 70.4447 598.84 70.9447 599.36C71.4647 599.86 72.1747 600.11 73.0747 600.11C73.6347 600.11 74.1247 600.08 74.5447 600.02C74.9647 599.96 75.4747 599.86 76.0747 599.72L76.1347 601.97C74.9147 602.23 73.8847 602.36 73.0447 602.36C69.4447 602.36 67.6447 600.54 67.6447 596.9V592.46C67.6447 588.82 69.4547 587 73.0747 587ZM82.1842 581.51V602H79.6342V581.51H82.1842ZM88.9225 587.36V602H86.3725V587.36H88.9225ZM87.6325 581.45C88.1725 581.45 88.5825 581.57 88.8625 581.81C89.1625 582.05 89.3125 582.39 89.3125 582.83V583.7C89.3125 584.14 89.1625 584.48 88.8625 584.72C88.5825 584.94 88.1725 585.05 87.6325 585.05C87.1125 585.05 86.7025 584.94 86.4025 584.72C86.1225 584.48 85.9825 584.14 85.9825 583.7V582.83C85.9825 582.39 86.1225 582.05 86.4025 581.81C86.7025 581.57 87.1125 581.45 87.6325 581.45ZM97.9107 587C99.5907 587 100.871 587.46 101.751 588.38C102.631 589.3 103.071 590.63 103.071 592.37V595.46H95.3607V597.23C95.3607 598.25 95.6007 598.99 96.0807 599.45C96.5807 599.89 97.3607 600.11 98.4207 600.11C99.4607 600.11 100.761 599.95 102.321 599.63L102.381 601.85C100.521 602.19 99.1907 602.36 98.3907 602.36C96.4107 602.36 94.9807 601.93 94.1007 601.07C93.2407 600.21 92.8107 598.88 92.8107 597.08V592.37C92.8107 590.63 93.2307 589.3 94.0707 588.38C94.9307 587.46 96.2107 587 97.9107 587ZM97.9107 589.13C97.1307 589.13 96.5107 589.38 96.0507 589.88C95.5907 590.36 95.3607 591.06 95.3607 591.98V593.42H100.521V592.07C100.521 591.11 100.281 590.38 99.8007 589.88C99.3407 589.38 98.7107 589.13 97.9107 589.13ZM112.919 587C114.199 587 115.179 587.44 115.859 588.32C116.559 589.18 116.909 590.41 116.909 592.01V602H114.359V592.37C114.359 590.37 113.709 589.37 112.409 589.37C111.829 589.37 111.239 589.59 110.639 590.03C110.039 590.47 109.519 591.07 109.079 591.83V602H106.529V587.36H108.929V589.55C109.469 588.73 110.069 588.1 110.729 587.66C111.409 587.22 112.139 587 112.919 587ZM124.119 587.36H128.019V589.46H124.119V598.04C124.119 598.8 124.269 599.35 124.569 599.69C124.889 600.01 125.379 600.17 126.039 600.17C126.879 600.17 127.699 600.07 128.499 599.87L128.559 602C127.679 602.24 126.879 602.36 126.159 602.36C124.559 602.36 123.389 602.01 122.649 601.31C121.929 600.59 121.569 599.43 121.569 597.83V589.46H119.469V587.36H121.569L122.049 583.46H124.119V587.36Z" fill="white"/>
<path d="M116.075 724C116.975 724 117.995 724.13 119.135 724.39L119.075 726.64C117.915 726.38 116.915 726.25 116.075 726.25C115.135 726.25 114.415 726.51 113.915 727.03C113.435 727.55 113.195 728.29 113.195 729.25V734.08C113.195 735.08 113.445 735.84 113.945 736.36C114.465 736.86 115.175 737.11 116.075 737.11C116.635 737.11 117.125 737.08 117.545 737.02C117.965 736.96 118.475 736.86 119.075 736.72L119.135 738.97C117.915 739.23 116.885 739.36 116.045 739.36C112.445 739.36 110.645 737.54 110.645 733.9V729.46C110.645 725.82 112.455 724 116.075 724ZM125.184 718.51V739H122.634V718.51H125.184ZM131.922 724.36V739H129.372V724.36H131.922ZM130.632 718.45C131.172 718.45 131.582 718.57 131.862 718.81C132.162 719.05 132.312 719.39 132.312 719.83V720.7C132.312 721.14 132.162 721.48 131.862 721.72C131.582 721.94 131.172 722.05 130.632 722.05C130.112 722.05 129.702 721.94 129.402 721.72C129.122 721.48 128.982 721.14 128.982 720.7V719.83C128.982 719.39 129.122 719.05 129.402 718.81C129.702 718.57 130.112 718.45 130.632 718.45ZM140.911 724C142.591 724 143.871 724.46 144.751 725.38C145.631 726.3 146.071 727.63 146.071 729.37V732.46H138.361V734.23C138.361 735.25 138.601 735.99 139.081 736.45C139.581 736.89 140.361 737.11 141.421 737.11C142.461 737.11 143.761 736.95 145.321 736.63L145.381 738.85C143.521 739.19 142.191 739.36 141.391 739.36C139.411 739.36 137.981 738.93 137.101 738.07C136.241 737.21 135.811 735.88 135.811 734.08V729.37C135.811 727.63 136.231 726.3 137.071 725.38C137.931 724.46 139.211 724 140.911 724ZM140.911 726.13C140.131 726.13 139.511 726.38 139.051 726.88C138.591 727.36 138.361 728.06 138.361 728.98V730.42H143.521V729.07C143.521 728.11 143.281 727.38 142.801 726.88C142.341 726.38 141.711 726.13 140.911 726.13ZM155.919 724C157.199 724 158.179 724.44 158.859 725.32C159.559 726.18 159.909 727.41 159.909 729.01V739H157.359V729.37C157.359 727.37 156.709 726.37 155.409 726.37C154.829 726.37 154.239 726.59 153.639 727.03C153.039 727.47 152.519 728.07 152.079 728.83V739H149.529V724.36H151.929V726.55C152.469 725.73 153.069 725.1 153.729 724.66C154.409 724.22 155.139 724 155.919 724ZM167.119 724.36H171.019V726.46H167.119V735.04C167.119 735.8 167.269 736.35 167.569 736.69C167.889 737.01 168.379 737.17 169.039 737.17C169.879 737.17 170.699 737.07 171.499 736.87L171.559 739C170.679 739.24 169.879 739.36 169.159 739.36C167.559 739.36 166.389 739.01 165.649 738.31C164.929 737.59 164.569 736.43 164.569 734.83V726.46H162.469V724.36H164.569L165.049 720.46H167.119V724.36Z" fill="white"/>
<path d="M205.075 833C205.975 833 206.995 833.13 208.135 833.39L208.075 835.64C206.915 835.38 205.915 835.25 205.075 835.25C204.135 835.25 203.415 835.51 202.915 836.03C202.435 836.55 202.195 837.29 202.195 838.25V843.08C202.195 844.08 202.445 844.84 202.945 845.36C203.465 845.86 204.175 846.11 205.075 846.11C205.635 846.11 206.125 846.08 206.545 846.02C206.965 845.96 207.475 845.86 208.075 845.72L208.135 847.97C206.915 848.23 205.885 848.36 205.045 848.36C201.445 848.36 199.645 846.54 199.645 842.9V838.46C199.645 834.82 201.455 833 205.075 833ZM214.184 827.51V848H211.634V827.51H214.184ZM220.922 833.36V848H218.372V833.36H220.922ZM219.632 827.45C220.172 827.45 220.582 827.57 220.862 827.81C221.162 828.05 221.312 828.39 221.312 828.83V829.7C221.312 830.14 221.162 830.48 220.862 830.72C220.582 830.94 220.172 831.05 219.632 831.05C219.112 831.05 218.702 830.94 218.402 830.72C218.122 830.48 217.982 830.14 217.982 829.7V828.83C217.982 828.39 218.122 828.05 218.402 827.81C218.702 827.57 219.112 827.45 219.632 827.45ZM229.911 833C231.591 833 232.871 833.46 233.751 834.38C234.631 835.3 235.071 836.63 235.071 838.37V841.46H227.361V843.23C227.361 844.25 227.601 844.99 228.081 845.45C228.581 845.89 229.361 846.11 230.421 846.11C231.461 846.11 232.761 845.95 234.321 845.63L234.381 847.85C232.521 848.19 231.191 848.36 230.391 848.36C228.411 848.36 226.981 847.93 226.101 847.07C225.241 846.21 224.811 844.88 224.811 843.08V838.37C224.811 836.63 225.231 835.3 226.071 834.38C226.931 833.46 228.211 833 229.911 833ZM229.911 835.13C229.131 835.13 228.511 835.38 228.051 835.88C227.591 836.36 227.361 837.06 227.361 837.98V839.42H232.521V838.07C232.521 837.11 232.281 836.38 231.801 835.88C231.341 835.38 230.711 835.13 229.911 835.13ZM244.919 833C246.199 833 247.179 833.44 247.859 834.32C248.559 835.18 248.909 836.41 248.909 838.01V848H246.359V838.37C246.359 836.37 245.709 835.37 244.409 835.37C243.829 835.37 243.239 835.59 242.639 836.03C242.039 836.47 241.519 837.07 241.079 837.83V848H238.529V833.36H240.929V835.55C241.469 834.73 242.069 834.1 242.729 833.66C243.409 833.22 244.139 833 244.919 833ZM256.119 833.36H260.019V835.46H256.119V844.04C256.119 844.8 256.269 845.35 256.569 845.69C256.889 846.01 257.379 846.17 258.039 846.17C258.879 846.17 259.699 846.07 260.499 845.87L260.559 848C259.679 848.24 258.879 848.36 258.159 848.36C256.559 848.36 255.389 848.01 254.649 847.31C253.929 846.59 253.569 845.43 253.569 843.83V835.46H251.469V833.36H253.569L254.049 829.46H256.119V833.36Z" fill="white"/>
<defs>
<filter id="filter0_d" x="562" y="0" width="666" height="918" filterUnits="userSpaceOnUse" color-interpolation-filters="sRGB">
<feFlood flood-opacity="0" result="BackgroundImageFix"/>
<feColorMatrix in="SourceAlpha" type="matrix" values="0 0 0 0 0 0 0 0 0 0 0 0 0 0 0 0 0 0 127 0" result="hardAlpha"/>
<feOffset dy="4"/>
<feGaussianBlur stdDeviation="12"/>
<feComposite in2="hardAlpha" operator="out"/>
<feColorMatrix type="matrix" values="0 0 0 0 0 0 0 0 0 0 0 0 0 0 0 0 0 0 0.25 0"/>
<feBlend mode="normal" in2="BackgroundImageFix" result="effect1_dropShadow"/>
<feBlend mode="normal" in="SourceGraphic" in2="effect1_dropShadow" result="shape"/>
</filter>
<filter id="filter1_d" x="913" y="160" width="170" height="93" filterUnits="userSpaceOnUse" color-interpolation-filters="sRGB">
<feFlood flood-opacity="0" result="BackgroundImageFix"/>
<feColorMatrix in="SourceAlpha" type="matrix" values="0 0 0 0 0 0 0 0 0 0 0 0 0 0 0 0 0 0 127 0" result="hardAlpha"/>
<feOffset dy="4"/>
<feGaussianBlur stdDeviation="12"/>
<feComposite in2="hardAlpha" operator="out"/>
<feColorMatrix type="matrix" values="0 0 0 0 0 0 0 0 0 0 0 0 0 0 0 0 0 0 0.25 0"/>
<feBlend mode="normal" in2="BackgroundImageFix" result="effect1_dropShadow"/>
<feBlend mode="normal" in="SourceGraphic" in2="effect1_dropShadow" result="shape"/>
</filter>
<filter id="filter2_d" x="997" y="413" width="170" height="93" filterUnits="userSpaceOnUse" color-interpolation-filters="sRGB">
<feFlood flood-opacity="0" result="BackgroundImageFix"/>
<feColorMatrix in="SourceAlpha" type="matrix" values="0 0 0 0 0 0 0 0 0 0 0 0 0 0 0 0 0 0 127 0" result="hardAlpha"/>
<feOffset dy="4"/>
<feGaussianBlur stdDeviation="12"/>
<feComposite in2="hardAlpha" operator="out"/>
<feColorMatrix type="matrix" values="0 0 0 0 0 0 0 0 0 0 0 0 0 0 0 0 0 0 0.25 0"/>
<feBlend mode="normal" in2="BackgroundImageFix" result="effect1_dropShadow"/>
<feBlend mode="normal" in="SourceGraphic" in2="effect1_dropShadow" result="shape"/>
</filter>
<filter id="filter3_d" x="913" y="640" width="170" height="93" filterUnits="userSpaceOnUse" color-interpolation-filters="sRGB">
<feFlood flood-opacity="0" result="BackgroundImageFix"/>
<feColorMatrix in="SourceAlpha" type="matrix" values="0 0 0 0 0 0 0 0 0 0 0 0 0 0 0 0 0 0 127 0" result="hardAlpha"/>
<feOffset dy="4"/>
<feGaussianBlur stdDeviation="12"/>
<feComposite in2="hardAlpha" operator="out"/>
<feColorMatrix type="matrix" values="0 0 0 0 0 0 0 0 0 0 0 0 0 0 0 0 0 0 0.25 0"/>
<feBlend mode="normal" in2="BackgroundImageFix" result="effect1_dropShadow"/>
<feBlend mode="normal" in="SourceGraphic" in2="effect1_dropShadow" result="shape"/>
</filter>
<filter id="filter4_d" x="444" y="320" width="278" height="278" filterUnits="userSpaceOnUse" color-interpolation-filters="sRGB">
<feFlood flood-opacity="0" result="BackgroundImageFix"/>
<feColorMatrix in="SourceAlpha" type="matrix" values="0 0 0 0 0 0 0 0 0 0 0 0 0 0 0 0 0 0 127 0" result="hardAlpha"/>
<feOffset dy="4"/>
<feGaussianBlur stdDeviation="12"/>
<feComposite in2="hardAlpha" operator="out"/>
<feColorMatrix type="matrix" values="0 0 0 0 0 0 0 0 0 0 0 0 0 0 0 0 0 0 0.25 0"/>
<feBlend mode="normal" in2="BackgroundImageFix" result="effect1_dropShadow"/>
<feBlend mode="normal" in="SourceGraphic" in2="effect1_dropShadow" result="shape"/>
</filter>
</defs>
</svg>
