<svg width="54" height="24" viewBox="0 0 54 24" fill="none" xmlns="http://www.w3.org/2000/svg">
<path d="M25.9941 17.0635L25.9831 19L13.5417 18.8943C13.007 18.8897 12.5759 18.4525 12.5789 17.9177V17.9177C12.582 17.383 13.0179 16.9532 13.5527 16.9577L25.9941 17.0635Z" fill="#0F0935"/>
<path d="M26.2214 7.17023L26.2109 9.10679L7.92853 8.94514C7.39378 8.94041 6.96264 8.50306 6.96555 7.96829V7.96829C6.96846 7.43353 7.40432 7.00384 7.93908 7.00857L26.2214 7.17023Z" fill="#0F0935"/>
<path d="M24.8345 11.8855L24.8233 13.8221L0.968268 13.6243C0.433511 13.6199 0.00252436 13.1828 0.00563045 12.648V12.648C0.00873654 12.1132 0.444761 11.6833 0.979517 11.6877L24.8345 11.8855Z" fill="#0F0935"/>
<path d="M41.046 19H39.198L40.496 7.23L36.162 17.504H33.874L32.114 7.274L30.596 19H28.748L30.64 4.59H33.302C34.1527 8.858 34.7687 12.5907 35.15 15.788C36.7193 12.3413 38.252 8.60867 39.748 4.59H42.674L41.046 19ZM50.0488 11.212C50.8701 11.5493 51.4788 11.9967 51.8748 12.554C52.2855 13.1113 52.4908 13.8007 52.4908 14.622C52.4908 14.886 52.4688 15.1867 52.4248 15.524L52.3808 15.81C52.2048 16.9687 51.7501 17.834 51.0168 18.406C50.2981 18.978 49.2861 19.264 47.9808 19.264C47.3501 19.264 46.6608 19.176 45.9128 19C45.1648 18.8093 44.5341 18.5893 44.0208 18.34L44.2408 16.47C45.2528 16.9833 46.1841 17.3427 47.0348 17.548C47.3281 17.5773 47.6435 17.592 47.9808 17.592C48.7435 17.592 49.3228 17.438 49.7188 17.13C50.1148 16.8073 50.3715 16.316 50.4888 15.656L50.5328 15.414C50.5768 15.1647 50.5988 14.9447 50.5988 14.754C50.5988 14.2847 50.4741 13.9033 50.2248 13.61C49.9901 13.302 49.6015 13.038 49.0588 12.818L47.1008 12.026C46.3235 11.718 45.7295 11.2633 45.3188 10.662C44.9081 10.0607 44.7028 9.35667 44.7028 8.55C44.7028 8.18333 44.7468 7.802 44.8348 7.406L44.8788 7.208C45.3041 5.28667 46.7781 4.326 49.3008 4.326C49.7555 4.326 50.2908 4.37733 50.9068 4.48C51.5375 4.568 52.1095 4.678 52.6228 4.81L52.3808 6.592C51.5595 6.35733 50.7601 6.16667 49.9828 6.02C49.7628 6.00533 49.5061 5.998 49.2128 5.998C47.7461 5.998 46.9248 6.548 46.7488 7.648L46.7048 7.912C46.6755 8.14667 46.6608 8.32267 46.6608 8.44C46.6608 8.90933 46.7855 9.31267 47.0348 9.65C47.2841 9.97267 47.6801 10.244 48.2228 10.464L50.0488 11.212Z" fill="#0F0935"/>
</svg>
